<?xml version="1.0" encoding="UTF-8"?>
<svg xmlns="http://www.w3.org/2000/svg" xmlns:xlink="http://www.w3.org/1999/xlink" xmlns:xodm="http://www.corel.com/coreldraw/odm/2003" xml:space="preserve" width="7.3094mm" height="6.1528mm" version="1.1" style="shape-rendering:geometricPrecision; text-rendering:geometricPrecision; image-rendering:optimizeQuality; fill-rule:evenodd; clip-rule:evenodd" viewBox="0 0 52.32 44.04"> <defs> <style type="text/css"> .fil0 {fill:#CCCCCC;fill-rule:nonzero} </style> </defs> <g id="Layer_x0020_1"> <metadata id="CorelCorpID_0Corel-Layer"></metadata> <g id="_105553342752576"> <path class="fil0" d="M52.32 0.65l0 11.63 -0.43 0c0,-2.02 -0.31,-3.89 -0.95,-5.59 -0.63,-1.7 -1.65,-3.06 -3.03,-4.08 -1.38,-1.02 -3.18,-1.53 -5.39,-1.53l-15.48 0 -0.15 -0.43 25.41 0z"></path> <path class="fil0" d="M18.15 8.42l-4.65 13.33c-1.13,3.24 0.9,5.79 2.74,8.22l0.32 0.43c0.11,0.15 0.22,0.29 0.32,0.44 1.6,2.21 3.22,4.43 3.17,7.23 -0.07,4.2 -3.35,5.96 -7.18,5.97l-12.88 0 0 -0.43c2.54,0 6.8,-4.04 8.26,-8.23l12.36 -35.39 13.26 38.27c1.1,3.19 2.56,5.35 5.99,5.35l0 0.43 -16.45 0 0 -0.43 1.17 0c1.18,0 2.2,-0.52 2.9,-1.48 0.7,-0.96 0.88,-2.09 0.51,-3.21l-9.86 -30.5zm-2.12 21.98l-0.32 -0.43c-1.41,-1.86 -2.85,-3.8 -2.95,-6.09l-2.2 6.3 -0.52 1.48c-1.08,3.1 -1.51,5.04 -1.45,6.52 0.13,2.85 2.51,5.37 5.45,5.28 3.19,-0.1 5.54,-2.12 5.59,-5.4 0.04,-2.66 -1.53,-4.82 -3.09,-6.98 -0.17,-0.23 -0.34,-0.46 -0.51,-0.69z"></path> <path class="fil0" d="M34.25 21.84l1.76 0c1.65,0 3.02,-0.2 4.1,-0.59 1.09,-0.39 1.9,-0.98 2.44,-1.79 0.54,-0.8 0.8,-1.83 0.8,-3.1l0.45 0 0 11.63 -0.45 0c0,-1.27 -0.26,-2.33 -0.8,-3.18 -0.54,-0.85 -1.35,-1.49 -2.44,-1.93 -1.09,-0.43 -2.46,-0.65 -4.1,-0.65l-1.62 0 -0.14 -0.4z"></path> </g> </g> </svg>
