<?xml version="1.0" encoding="UTF-8"?>
<svg xmlns="http://www.w3.org/2000/svg" xmlns:xlink="http://www.w3.org/1999/xlink" xmlns:xodm="http://www.corel.com/coreldraw/odm/2003" xml:space="preserve" width="29.6333mm" height="29.2937mm" version="1.1" style="shape-rendering:geometricPrecision; text-rendering:geometricPrecision; image-rendering:optimizeQuality; fill-rule:evenodd; clip-rule:evenodd" viewBox="0 0 1708.45 1688.87"> <defs> <style type="text/css"> .fil0 {fill:none} .fil1 {fill:#217580} </style> </defs> <g id="Layer_x0020_1"> <metadata id="CorelCorpID_0Corel-Layer"></metadata> <g id="_105553353469120"> <g> <polygon class="fil0" points="-0,0 1708.45,0 1708.45,1688.87 -0,1688.87 "></polygon> <path class="fil1" d="M1147.09 1376.55l-177.65 -267.52 146.01 0 113.51 274.1 -77.51 0 -4.36 -6.58zm-263.69 -697.8c-2.62,-1.76 -5.6,-2.43 -8.31,-2.02 -2.29,0.36 -4.4,1.59 -5.8,3.68 -22.58,27.45 -52.86,66.5 -72.74,95.66 -1.74,2.61 -2.4,5.59 -1.98,8.3 0.36,2.32 1.57,4.45 3.64,5.83 2.63,1.74 5.67,2.42 8.41,1.99 2.26,-0.35 4.36,-1.58 5.77,-3.69l0.81 -1.21 0.5 -0.5c23.95,-32.15 49.24,-64.58 72.42,-97.14 0.98,-1.53 1.33,-3.42 1.04,-5.26 -0.3,-1.93 -1.31,-3.82 -3.01,-5.18l-0.74 -0.45zm-517.85 583.89c-10.72,0 -20.64,-4.54 -27.81,-11.7 -7.16,-7.23 -11.71,-17.12 -11.71,-27.79 0,-10.74 4.54,-20.65 11.7,-27.81 7.18,-7.18 17.09,-11.7 27.82,-11.7 10.73,0 20.65,4.53 27.82,11.7 7.17,7.17 11.7,17.07 11.7,27.81 0,10.69 -4.55,20.58 -11.73,27.77 -7.1,7.16 -17.01,11.67 -27.77,11.67l-0.01 0.06zm0 -99.45c-16.06,0 -30.58,6.49 -41.07,16.96 -10.46,10.52 -16.96,25.03 -16.96,41.07 0,16.04 6.49,30.54 16.98,41.04 10.45,10.52 24.97,16.98 41.04,16.98 16.06,0 30.59,-6.48 41.08,-16.95 10.46,-10.52 16.96,-25.03 16.96,-41.07 0,-15.4 -6.66,-30.07 -17.41,-40.81 -10.55,-10.49 -24.88,-17.22 -40.63,-17.22zm988.81 147.25c-6.87,0 -13.46,-3.16 -18.19,-7.87 -4.76,-4.75 -7.94,-11.37 -7.94,-18.24 0,-6.85 3.15,-13.44 7.88,-18.19l0.06 -0.06c4.74,-4.73 11.34,-7.88 18.19,-7.88 6.87,0 13.47,3.17 18.21,7.9 4.75,4.69 7.9,11.32 7.9,18.22 0,6.87 -3.15,13.45 -7.86,18.17 -4.68,4.74 -11.28,7.86 -18.23,7.88l-0.01 0.06zm0 -72.66c-13.19,0 -24.87,5.06 -33.19,13.37 -8.29,8.35 -13.37,20.02 -13.37,33.19 -0.06,13.15 5.03,24.82 13.35,33.14 8.33,8.32 20,13.39 33.21,13.39 13.16,0 24.83,-5.07 33.16,-13.4 8.35,-8.28 13.41,-19.94 13.41,-33.13 -0.92,-13.17 -6.43,-24.81 -14.78,-33.16 -8.38,-8.32 -19.57,-13.4 -31.78,-13.4zm-610.11 -761.82c7.82,0 14.04,2.94 18.53,7.43 5.04,5.04 7.58,11.93 7.58,18.67 0,6.87 -3.16,13.47 -7.87,18.19 -4.75,4.76 -11.37,7.94 -18.24,7.94 -6.87,0 -13.46,-3.15 -18.2,-7.88l-0.06 -0.06c-4.2,-4.21 -7.16,-9.89 -7.76,-15.94 -0.32,-1.5 -0.48,-3 -0.48,-4.5 0,-5.44 2.04,-10.48 5.56,-14.59l0.06 -0.06c2.95,-3.41 6.99,-6.13 11.65,-7.69 3,-0.97 6.12,-1.53 9.23,-1.53zm0 72.67c13.2,0 24.87,-5.06 33.15,-13.35 8.33,-8.39 13.4,-20.05 13.4,-33.21 0,-13.2 -5.06,-24.85 -13.34,-33.14 -8.33,-8.33 -20.01,-13.4 -33.21,-13.4 -13.17,0 -24.84,5.07 -33.16,13.39 -8.34,8.28 -13.4,19.94 -13.4,33.14 0,13.17 5.07,24.83 13.4,33.16 8.32,8.32 19.99,13.4 33.16,13.4zm-403.58 811.53c-2.63,0 -5.17,1.22 -7.09,3.13 -1.92,1.88 -3.12,4.43 -3.12,7.11 0,2.64 1.22,5.18 3.12,7.09 1.87,1.93 4.4,3.12 7.09,3.12 2.68,0 5.23,-1.2 7.13,-3.09 1.88,-1.94 3.1,-4.48 3.1,-7.13 0,-3.24 -1.04,-5.76 -2.68,-7.4 -1.82,-1.82 -4.53,-2.84 -7.55,-2.84zm1025.15 -219.93c-2.65,0 -5.19,1.21 -7.1,3.12 -1.91,1.87 -3.12,4.42 -3.12,7.09 0,2.68 1.2,5.23 3.1,7.14 1.94,1.89 4.48,3.1 7.11,3.1 2.65,0 5.19,-1.22 7.1,-3.12 1.93,-1.88 3.12,-4.43 3.12,-7.11 0,-3.22 -1.04,-5.74 -2.68,-7.37 -1.79,-1.83 -4.51,-2.84 -7.55,-2.84zm-454.54 107.77l0 -137.05 33.87 0 101.92 151.7 -135.78 0 0 -14.64zm-33.16 135.14l-62.46 0 0 -272.19 77.1 0 0 272.19 -14.64 0zm-203.4 -143.26l86.64 -128.93 33.87 0 0 151.7 -135.81 0 15.3 -22.77zm-127.48 143.26l-69.67 0 115.96 -269.15 146.02 0 -184.5 269.15 -7.81 0zm-109.02 -369.74l844.71 0 0 77.11 -859.35 0 0 -77.11 14.64 0zm-22.95 -147.25l747.16 0 0 126.82 -809.63 0 0 -126.82 62.47 0zm506.68 -304.41l229.82 282.05 -482.31 0 241.16 -295.96 11.33 13.91zm-284.83 283.96l-202.81 0 195.13 -240.54 104.91 128.24 -90.26 112.3 -6.96 0zm523.4 -452.62l0 435.31 -244.07 -301.84 -0.87 -0.81c-1.79,-1.55 -4.28,-2.3 -6.87,-2.3 -2.59,0 -5.08,0.76 -6.87,2.24l-0.98 1.03 -154.69 191.78 -108.9 -134.52 -0.98 -0.92c-1.77,-1.51 -4.25,-2.25 -6.83,-2.25 -2.58,0 -5.06,0.75 -6.84,2.23l-0.96 0.95 -212.9 261.72 -57.88 0 0 -467.26 809.63 0 0 14.64zm-557.83 -87.33l511.87 0 16.67 54.17 -555.94 0 16.62 -54.17 10.78 0zm738.26 687.22l-160 0 0 -614.53 174.65 0 0 614.53 -14.64 0zm-183.61 117.98l133.89 0c2.65,0 5.19,-1.22 7.1,-3.12 1.91,-1.91 3.12,-4.45 3.12,-7.09l0 -87.33 62.45 0c2.65,0 5.19,-1.21 7.1,-3.12 1.9,-1.9 3.11,-4.45 3.11,-7.1l0 -634.97c0,-2.7 -1.21,-5.26 -3.12,-7.17 -1.87,-1.87 -4.41,-3.07 -7.09,-3.07l-211.3 0c-7.6,-22.79 -15.57,-45.64 -22.82,-68.51 -0.12,-0.47 -0.99,-1.29 -2.38,-2.21 -1.7,-1.19 -3.92,-1.94 -6.38,-1.94l-535.53 0c-1.46,0 -3.11,0.72 -4.66,1.89 -2,1.5 -3.66,3.56 -4.62,5.8l-22.32 66.91 -213.22 0c-2.68,0 -5.22,1.19 -7.09,3.07 -1.9,1.96 -3.12,4.5 -3.12,7.15l0 634.97c0,2.65 1.22,5.19 3.12,7.1 1.87,1.93 4.4,3.12 7.09,3.12l64.39 0 0 87.33c0,2.65 1.21,5.19 3.12,7.1 1.9,1.9 4.45,3.11 7.1,3.11l155.77 0 -116.29 280.11c-0.32,0.56 -0.47,1.26 -0.47,1.98 0,1.35 0.43,2.77 1.19,4.04 0.84,1.41 2.08,2.66 3.58,3.52 1.17,0.67 2.54,1.07 4.03,1.07l97.55 0.06c1.44,0 2.98,-0.41 4.46,-1.22 1.61,-0.88 3.2,-2.25 4.64,-4.08l78.79 -117.17 146.7 0 0 112.19c0,2.69 1.19,5.22 3.06,7.1l0.06 0.06c1.87,1.87 4.4,3.06 7.09,3.06l97.54 0.06c2.65,-0.06 5.19,-1.27 7.1,-3.18 1.9,-1.9 3.11,-4.45 3.11,-7.1l0.06 -112.19 146.63 0c16.81,24.99 63.31,101.77 79.05,117.52 0.88,1.33 2.3,2.7 4.09,3.67 1.35,0.73 2.96,1.22 4.76,1.22l97.53 0c1.78,0 3.49,-0.55 4.94,-1.45 1.45,-0.91 2.67,-2.16 3.52,-3.59 0.72,-1.22 1.14,-2.55 1.14,-3.85 0,-1.04 -0.3,-2.13 -0.95,-3.18l-0.51 -0.81c-39.3,-93.28 -78.74,-186.5 -118.14,-279.74l22.02 0z"></path> </g> </g> </g> </svg>
