<?xml version="1.0" encoding="UTF-8"?>
<svg xmlns="http://www.w3.org/2000/svg" xmlns:xlink="http://www.w3.org/1999/xlink" xmlns:xodm="http://www.corel.com/coreldraw/odm/2003" xml:space="preserve" width="29.6333mm" height="29.2937mm" version="1.1" style="shape-rendering:geometricPrecision; text-rendering:geometricPrecision; image-rendering:optimizeQuality; fill-rule:evenodd; clip-rule:evenodd" viewBox="0 0 774.02 765.15"> <defs> <style type="text/css"> .fil0 {fill:none} .fil1 {fill:#FF6600} </style> </defs> <g id="Layer_x0020_1"> <metadata id="CorelCorpID_0Corel-Layer"></metadata> <g id="_105553353631968"> <polygon class="fil0" points="-0,-0 774.02,-0 774.02,765.15 -0,765.15 "></polygon> <path class="fil1" d="M130.11 470.11c0,-5.04 2.16,-9.71 5.58,-13.1l0.03 -0.03c3.41,-3.36 8.1,-5.49 13.14,-5.49 5.06,0 9.75,2.14 13.16,5.51 3.42,3.38 5.58,8.05 5.58,13.1 0,5.06 -2.17,9.73 -5.6,13.13 -3.4,3.35 -8.07,5.46 -13.14,5.46l-0.01 0.03c-5.06,0 -9.75,-2.13 -13.14,-5.49l-0.03 -0.03c-3.42,-3.38 -5.58,-8.04 -5.58,-13.1zm47.54 -0c0,-7.84 -3.2,-14.93 -8.37,-20.04 -5.21,-5.15 -12.43,-8.33 -20.41,-8.33 -7.99,0 -15.21,3.19 -20.42,8.33 -5.17,5.11 -8.38,12.2 -8.38,20.05 -0.03,7.82 3.19,14.92 8.38,20.05 5.21,5.15 12.43,8.33 20.42,8.33 7.99,0 15.2,-3.18 20.41,-8.33 5.17,-5.11 8.37,-12.2 8.37,-20.05zm453.12 -252.29c-3.2,0 -6.27,-1.46 -8.49,-3.64l-0.03 -0.03c-2.23,-2.2 -3.72,-5.28 -3.72,-8.49 0,-3.21 1.49,-6.29 3.72,-8.49l0.03 -0.03c2.21,-2.19 5.29,-3.64 8.49,-3.64 3.19,0 6.26,1.46 8.48,3.64 2.25,2.22 3.74,5.32 3.74,8.52 0,3.22 -1.49,6.29 -3.71,8.49l-0.03 0.03c-2.2,2.17 -5.27,3.61 -8.48,3.62l-0.01 0.03zm0 -35.02c-6.59,0 -12.42,2.5 -16.57,6.61 -4.12,4.07 -6.63,9.78 -6.63,16.25 0,6.46 2.51,12.18 6.63,16.25 4.15,4.1 9.98,6.61 16.57,6.61 6.59,0 12.41,-2.5 16.57,-6.61 4.12,-4.07 6.63,-9.78 6.63,-16.25 -0.44,-6.44 -3.18,-12.15 -7.32,-16.25 -4.15,-4.1 -9.74,-6.61 -15.87,-6.61zm-119.31 45.7c3.2,0 6.28,1.47 8.5,3.67 2.23,2.2 3.71,5.28 3.71,8.49 0,3.65 -1.38,6.54 -3.5,8.64l-0.03 0.03c-2.36,2.33 -5.56,3.5 -8.7,3.5 -3.19,0 -6.27,-1.46 -8.49,-3.64 -2.25,-2.22 -3.75,-5.3 -3.75,-8.52 0,-3.67 1.13,-6.63 3.4,-8.87 2.23,-2.2 5.18,-3.3 8.84,-3.3zm0 35.01c6.59,0 12.41,-2.5 16.57,-6.61 4.12,-4.07 6.63,-9.78 6.63,-16.24 0,-6.47 -2.51,-12.18 -6.63,-16.25 -4.17,-4.12 -10,-6.63 -16.56,-6.63l-0.01 0.03c-6.59,0 -12.42,2.5 -16.57,6.61 -4.12,4.07 -6.63,9.78 -6.63,16.25 0,6.46 2.51,12.17 6.63,16.24 4.17,4.12 10,6.63 16.57,6.63l0.01 -0.03zm-311.34 62.01c-1.02,-1.01 -2.37,-1.51 -3.72,-1.51 -1.36,0 -2.72,0.51 -3.76,1.54 -6.78,6.78 -18.74,16.34 -24.29,23.12 -0.97,0.97 -1.45,2.24 -1.45,3.5 0,1.26 0.48,2.52 1.44,3.51 5.08,3.95 14.28,14.99 19.6,20.59 -5.59,5.53 -15.36,13.96 -19.59,19.4 -0.97,0.98 -1.45,2.24 -1.45,3.5 0,1.26 0.48,2.52 1.44,3.51l0.12 0.09c1.02,1.01 2.36,1.51 3.7,1.51 1.36,0 2.7,-0.51 3.72,-1.51 6.07,-6.07 18.74,-17.09 23.38,-23.13 0.97,-0.98 1.45,-2.25 1.45,-3.51 0,-1.26 -0.48,-2.52 -1.44,-3.51 -4.52,-3.15 -14.59,-14.4 -19.61,-19.37 6.67,-7 13.51,-14.91 20.49,-21.38 0.9,-0.94 1.37,-1.98 1.4,-2.96 0.04,-1.02 -0.32,-2.07 -1.05,-2.95l-0.39 -0.42zm427.87 0.03c-1.03,-1.02 -2.39,-1.54 -3.75,-1.54 -1.36,0 -2.71,0.51 -3.75,1.54 -6.73,6.73 -18.83,16.4 -24.29,23.11 -0.97,0.97 -1.45,2.24 -1.45,3.5 -0.03,1.24 0.46,2.5 1.44,3.51 5.94,4.59 14.68,14.5 20.69,20.44 -5.27,5.21 -16.13,14.64 -19.73,19.52 -0.98,0.96 -1.46,2.24 -1.46,3.52 -0.03,1.25 0.46,2.52 1.43,3.51 0.03,0.01 22.36,21.16 24.3,23.1 0.76,0.75 1.45,1.22 2.07,1.48 0.5,0.21 1.07,0.29 1.68,0.29 1.43,0 2.64,-0.57 3.5,-1.44 0.53,-0.53 0.96,-1.19 1.25,-1.91 0.28,-0.67 0.43,-1.42 0.43,-2.17 0,-1.19 -0.45,-2.41 -1.45,-3.41l-20.6 -20.39c5.52,-5.45 16.89,-15.33 20.66,-20.44 0.98,-0.96 1.46,-2.24 1.46,-3.52 0,-1.26 -0.47,-2.52 -1.42,-3.49 -6.97,-6.43 -13.9,-12.93 -20.85,-19.4l21.15 -20.9 0.22 -0.17c0.08,-0.16 0.11,-0.54 0.11,-1.02 -0.02,-1.01 -0.38,-2.13 -1.11,-3.12l-0.55 -0.63zm-468.55 -156.81l49.56 9.79 -28.47 28.15c-0.8,0.79 -1.29,1.74 -1.48,2.7 -0.16,0.8 -0.13,1.6 0.08,2.31 0.2,0.68 0.57,1.33 1.09,1.86 0.59,0.6 1.44,1.06 2.52,1.27l0.36 0.1c46.14,11.83 46.58,11.82 48.06,11.78 0.2,0 0.46,0.01 0.65,-0.03 1.27,0 2.38,-0.38 3.19,-1.04 0.74,-0.61 1.28,-1.53 1.47,-2.65l0.18 -0.72c0.34,-1.2 0.07,-2.48 -0.57,-3.6 -0.77,-1.35 -1.99,-2.42 -3.31,-2.93l-38.33 -9.14 29 -28.66c0.67,-0.69 1.07,-1.45 1.22,-2.21 0.15,-0.74 0.09,-1.53 -0.14,-2.26 -0.25,-0.79 -0.69,-1.53 -1.29,-2.14 -0.72,-0.73 -1.72,-1.29 -2.94,-1.53l-58.47 -11.02c-1.73,-0.22 -3.41,0.14 -4.65,0.96 -0.92,0.61 -1.59,1.52 -1.75,2.65 -0.25,1.97 0.06,3.59 0.8,4.69 0.58,0.86 1.57,1.46 2.87,1.64l0.36 0.05zm423.79 448.98l-404.55 0c-6.44,0 -12.53,-2.83 -16.99,-7.22 -4.47,-4.42 -7.36,-10.48 -7.36,-16.92 0,-6.43 2.88,-12.5 7.36,-16.92 4.44,-4.39 10.53,-7.22 16.99,-7.22l404.55 0c6.46,0 12.55,2.83 16.99,7.22 4.47,4.42 7.36,10.49 7.36,16.93 0,6.43 -2.88,12.5 -7.36,16.92 -4.44,4.39 -10.53,7.22 -16.99,7.22zm-349.34 -132.03c3.17,0.56 6.34,0.83 9.47,0.83 12.84,0 24.95,-4.61 34.41,-12.35 9.42,-7.72 16.19,-18.55 18.41,-31.02 0.51,-2.89 0.78,-5.89 0.78,-8.98 0,-7.24 -1.61,-14.27 -4.52,-20.71 -3.01,-6.66 -7.42,-12.71 -12.88,-17.7l-3.72 -3.4 25.48 -50.38c11.89,14.44 26.77,35.16 39.09,47.48 0.82,1.01 1.74,1.6 2.66,1.82 0.96,0.24 2.01,0.13 3.01,-0.25 1.1,-0.42 2.09,-1.14 2.81,-2.08 0.74,-0.96 1.2,-2.2 1.2,-3.62l-3.02 -58.79 55.67 -22.02c1.38,-0.57 2.3,-1.4 2.81,-2.31 0.41,-0.75 0.57,-1.63 0.5,-2.52 -0.08,-0.94 -0.43,-1.85 -1.01,-2.63 -0.69,-0.95 -1.82,-1.7 -3.3,-2.06 -17.36,-5.79 -39.56,-10.3 -57.81,-15.05l-1.41 -19.44 18.25 -36.09 5.32 1.62c5.38,1.64 10.57,2.46 15.45,2.46 4.64,0 8.95,-0.77 12.82,-2.3l5.62 -2.23 65.13 129.78 -5.23 3.15c-9.84,5.92 -17.72,13.96 -23.1,23.44 -5.27,9.3 -8.17,20.07 -8.17,31.7 0,8.26 1.56,16.04 4.35,23.12 4.82,12.19 13.31,22.38 23.9,29.5 10.63,7.14 23.36,11.24 36.6,11.24 7.9,0 16,-1.46 23.94,-4.6l5.61 -2.22 45.81 90.58 -376.52 0 36.71 -74.84 4.87 0.86zm4.1 -18.54l32.58 -65.47 6.48 8.1c5.81,7.25 8.6,15.53 8.85,23.75 0.2,6.44 -1.19,12.85 -3.91,18.66 -2.72,5.8 -6.77,11.03 -11.9,15.14 -6.93,5.52 -15.78,9.07 -25.99,9.39l-11.05 0.34 4.93 -9.9zm126.79 -158.61l-25.19 10.16c-0.96,0.38 -1.74,1.05 -2.27,1.91 -0.63,1.01 -0.98,2.33 -0.99,3.84l3.27 46.89 -32.69 -39.49 24.7 -48.84 6.47 6.41c0.2,0.2 0.13,-0.11 4.51,0.98 3.73,0.93 9.77,2.44 21.46,5.63l18.97 5.17 -18.24 7.35zm16.19 -162.97c10.18,0 19.28,3.95 25.84,10.44 6.6,6.52 10.62,15.56 10.62,25.68 0,4.11 -0.75,8.14 -2.11,11.94 -2.5,6.97 -7.13,13.01 -13.07,17.3 -5.95,4.3 -13.26,6.86 -21.1,6.86 -4.03,0.03 -8.23,-0.68 -12.51,-2.19 -7.01,-2.29 -13.14,-6.95 -17.46,-13.05 -4.18,-5.88 -6.68,-13.12 -6.68,-20.87 0,-9.75 4.11,-18.91 10.85,-25.57 6.52,-6.45 15.52,-10.56 25.62,-10.56zm130.85 316.01c-6.11,2.2 -12.24,3.22 -18.19,3.22 -11.34,0 -22.17,-3.64 -31.12,-9.93 -8.92,-6.27 -15.99,-15.21 -19.8,-25.83 -2.02,-5.61 -3.13,-11.64 -3.13,-17.91 0,-8.85 2.34,-17.43 6.49,-25.11 4.22,-7.8 10.32,-14.67 17.76,-19.93l6.27 -4.43 48.72 97.4 -7.01 2.52zm67.37 93.51l-169.96 -336.03 3.42 -3.39c4.73,-4.67 8.55,-9.96 11.1,-15.73 2.38,-5.3 3.7,-11.11 3.7,-17.33 0,-12.78 -5.2,-24.17 -13.5,-32.38 -8.51,-8.39 -20.23,-13.51 -32.98,-13.51 -12.74,0 -24.67,5.32 -33.39,13.79 -8.59,8.35 -14.05,19.75 -14.05,32.1 0,6.32 1.38,12.45 3.84,18 2.5,5.68 6.19,10.78 10.74,14.85l3.76 3.38c-57.22,113.26 -114.45,226.52 -171.81,339.7l-3.9 0.17c-8.96,0.38 -17.17,4.47 -23.14,10.79 -5.94,6.29 -9.64,14.8 -9.64,24.07 -0.03,9.65 3.9,18.36 10.27,24.65 6.36,6.3 15.2,10.18 25.04,10.18l404.55 0.02c9.85,-0.03 18.7,-3.9 25.07,-10.2 6.33,-6.26 10.24,-14.96 10.24,-24.65 -0.44,-9.28 -4.19,-17.6 -10.17,-23.79 -6,-6.21 -14.3,-10.29 -23.82,-11.07l-3.69 -0.31 -1.68 -3.32zm-85.44 -43.34c-1.46,0 -2.85,0.64 -3.87,1.66 -0.99,0.98 -1.62,2.3 -1.62,3.69 0,1.39 0.63,2.71 1.62,3.69 1.03,1.01 2.41,1.66 3.87,1.66 1.46,0 2.84,-0.64 3.86,-1.65 0.99,-0.99 1.61,-2.31 1.61,-3.69 0,-1.4 -0.64,-2.73 -1.64,-3.72 -1.01,-1 -2.38,-1.63 -3.83,-1.63zm-261.93 -246.96c-1.46,0.01 -2.83,0.65 -3.84,1.64l-0.03 0.03c-0.99,0.97 -1.62,2.3 -1.62,3.69 -0.03,1.36 0.61,2.69 1.62,3.69 1.02,1.01 2.4,1.65 3.87,1.65 1.46,0 2.84,-0.64 3.86,-1.65 0.99,-0.99 1.61,-2.31 1.61,-3.69 0,-1.39 -0.62,-2.71 -1.61,-3.7 -1.04,-1.03 -2.42,-1.68 -3.86,-1.66zm332.76 -107.25c1.46,0 2.85,-0.64 3.87,-1.65 0.99,-0.98 1.62,-2.3 1.62,-3.69 0,-1.39 -0.63,-2.71 -1.62,-3.69l-0.03 -0.03c-1.01,-1 -2.38,-1.63 -3.84,-1.63 -1.46,0 -2.83,0.63 -3.83,1.63 -0.91,0.9 -1.52,2.08 -1.62,3.34 0.34,1.72 1.11,3.25 2.19,4.32 0.87,0.86 2,1.41 3.27,1.41zm40.92 312.56c-0.01,-1.39 -0.65,-2.72 -1.65,-3.72 -1.01,-1 -2.37,-1.63 -3.83,-1.63 -1.46,0 -2.84,0.64 -3.87,1.65 -0.99,0.98 -1.62,2.3 -1.62,3.69 -0.03,1.37 0.61,2.7 1.62,3.69 0.94,0.93 2.19,1.55 3.52,1.64 2.01,-0.31 3.55,-1 4.53,-1.96l0.03 -0.03c0.83,-0.82 1.29,-1.97 1.28,-3.35zm-278.6 -17.34c-1.46,0.01 -2.83,0.65 -3.84,1.64 -1.01,1 -1.64,2.32 -1.64,3.72 0,1.39 0.63,2.71 1.62,3.69l0.03 0.03c1.01,1 2.38,1.63 3.84,1.63 1.46,0 2.83,-0.63 3.84,-1.63l0.03 -0.03c0.99,-0.98 1.62,-2.3 1.62,-3.69 0,-1.39 -0.63,-2.71 -1.62,-3.69 -1.04,-1.03 -2.43,-1.68 -3.87,-1.67zm47.55 -36.28c1.46,-0.01 2.84,-0.66 3.86,-1.66 0.99,-0.99 1.61,-2.31 1.61,-3.69 0,-1.4 -0.63,-2.72 -1.61,-3.69l-0.03 -0.03c-1.02,-1.01 -2.39,-1.65 -3.83,-1.65l-0.01 0.03c-1.46,0 -2.85,0.65 -3.87,1.66 -0.99,0.98 -1.62,2.3 -1.62,3.69 0,1.39 0.63,2.71 1.62,3.69 1.04,1.02 2.43,1.68 3.87,1.66zm-95.08 107.25c-1.47,0 -2.84,0.63 -3.84,1.63l-0.03 0.03c-0.99,0.98 -1.62,2.3 -1.62,3.69 0,1.39 0.63,2.71 1.62,3.69l0.03 0.03c1.01,1 2.38,1.63 3.84,1.63 1.46,0 2.85,-0.64 3.87,-1.65 0.99,-0.98 1.62,-2.3 1.62,-3.69 0,-1.74 -0.58,-3.08 -1.49,-3.93 -0.97,-0.9 -2.4,-1.41 -4,-1.41zm134.43 -187.31c-0.99,-0.98 -2.38,-1.59 -3.93,-1.59 -1.53,-0.03 -2.92,0.6 -3.93,1.59 -0.96,0.96 -1.56,2.29 -1.56,3.76 0,1.48 0.61,2.81 1.58,3.78 0.98,0.97 2.36,1.57 3.9,1.57 1.55,0 2.94,-0.61 3.94,-1.59 0.96,-0.95 1.56,-2.28 1.56,-3.75 0,-1.47 -0.6,-2.79 -1.56,-3.76zm-27.24 187.31c-5.06,0 -9.76,-2.14 -13.16,-5.51 -3.42,-3.38 -5.58,-8.04 -5.58,-13.1 0,-5.05 2.16,-9.72 5.58,-13.1 3.42,-3.38 8.11,-5.51 13.16,-5.51 5.05,0 9.73,2.13 13.14,5.49l0.03 0.03c3.42,3.39 5.58,8.06 5.58,13.1 0,5.06 -2.16,9.72 -5.58,13.1l-0.03 0.03c-3.39,3.35 -8.07,5.46 -13.14,5.46l-0.01 0.03zm0 -46.99c-7.98,0 -15.19,3.18 -20.4,8.32 -5.17,5.14 -8.39,12.23 -8.39,20.06 0,7.83 3.21,14.92 8.4,20.05 5.2,5.15 12.4,8.33 20.38,8.33 7.99,0 15.21,-3.19 20.42,-8.33 5.17,-5.11 8.38,-12.2 8.38,-20.05 0,-7.84 -3.2,-14.93 -8.38,-20.05 -5.21,-5.15 -12.43,-8.33 -20.42,-8.33z"></path> </g> </g> </svg>
