<?xml version="1.0" encoding="UTF-8"?>
<svg xmlns="http://www.w3.org/2000/svg" xmlns:xlink="http://www.w3.org/1999/xlink" xmlns:xodm="http://www.corel.com/coreldraw/odm/2003" xml:space="preserve" width="29.6333mm" height="29.2937mm" version="1.1" style="shape-rendering:geometricPrecision; text-rendering:geometricPrecision; image-rendering:optimizeQuality; fill-rule:evenodd; clip-rule:evenodd" viewBox="0 0 5899.84 5832.23"> <defs> <style type="text/css"> .fil0 {fill:none} .fil1 {fill:#58A8B3} </style> </defs> <g id="Layer_x0020_1"> <metadata id="CorelCorpID_0Corel-Layer"></metadata> <g id="_105553291637472"> <polygon class="fil0" points="-0,-0.02 5899.84,-0.02 5899.84,5832.21 -0,5832.21 "></polygon> <path class="fil1" d="M4805.89 1038.8l-2423.9 0c-10.79,0 -20.94,4.72 -28.45,12.12 -7.27,7.19 -11.91,16.92 -11.91,27.26 0,10.33 4.62,20.09 11.91,27.28 7.51,7.41 17.68,12.12 28.45,12.12l2389.88 0 0 2405.21 -2389.88 0c-10.77,0 -20.94,4.72 -28.45,12.12 -7.27,7.19 -11.91,16.94 -11.91,27.28 0,10.31 4.62,20.07 11.93,27.28 7.51,7.41 17.66,12.12 28.43,12.12l2423.9 0c10.79,0 20.96,-4.7 28.47,-12.12 7.31,-7.21 11.93,-16.96 11.93,-27.28l0 -2484.01c0,-10.31 -4.62,-20.07 -11.93,-27.28 -7.51,-7.41 -17.68,-12.1 -28.47,-12.1zm-771.85 3633.64c0,-99.41 41.37,-190.04 107.87,-255.76 66.28,-65.5 157.66,-106.28 257.89,-106.28 100.28,0 191.63,40.73 257.89,106.26 66.5,65.76 107.85,156.39 107.85,255.82l0 41.97 -731.49 -0.06 0 -41.95zm164.97 -639.81c0,-55.61 22.24,-105.4 58.53,-141.3 36.2,-35.78 86.31,-57.66 142.25,-57.66 55.87,0 105.94,21.88 142.13,57.66 36.45,35.9 58.69,85.69 58.69,141.32 0,55.53 -22.26,105.3 -58.69,141.3 -35.48,35.04 -84.52,56.74 -139.33,57.46l-13.14 0.56c-51.7,0 -97.72,-21.4 -131.62,-55.55 -33.23,-33.49 -54.75,-79.42 -58.26,-129.33l-0.58 -14.45zm406.09 189.56c24.63,-24.31 43.78,-52.86 56.7,-84.79 12.74,-31.42 19.43,-66.58 19.43,-104.74 0,-76.21 -31.64,-145.6 -82.49,-195.87 -51.23,-50.51 -121.65,-81.91 -198.96,-81.91 -77.41,0 -147.89,31.42 -198.96,81.91 -50.89,50.29 -82.52,119.66 -82.52,195.83 0,38.15 6.73,73.29 19.47,104.78 12.94,31.97 32.09,60.52 56.72,84.83l40.58 40.06 -50.29 26.94c-69.7,37.31 -126.31,92 -165.25,158.16 -38.47,65.34 -59.85,142.25 -59.85,225.1l0 81.55c0,10.31 4.62,20.07 11.91,27.26 7.51,7.41 17.66,12.12 28.43,12.12l805.86 0c10.79,0 20.96,-4.7 28.47,-12.1 7.31,-7.21 11.93,-16.94 11.93,-27.28l0 -81.59c0,-78.46 -22.36,-152.87 -61.52,-217.71 -40.93,-67.77 -100.07,-125.23 -171.1,-166.2l-47.82 -27.59 39.26 -38.74zm-2024.14 450.25c0,-99.41 41.35,-190.04 107.85,-255.76 66.28,-65.5 157.62,-106.28 257.89,-106.28 100.24,0 191.61,40.77 257.91,106.28 66.54,65.66 107.85,156.27 107.85,255.8l0 41.97 -731.49 -0.06 0 -41.95zm164.97 -639.81c0,-55.61 22.22,-105.4 58.51,-141.3 36.35,-35.78 86.41,-57.66 142.25,-57.66 55.85,0 105.92,21.9 142.11,57.68 36.45,35.9 58.69,85.69 58.69,141.3 0,55.51 -22.3,105.3 -58.69,141.28 -36.2,35.78 -86.27,57.68 -142.11,57.68 -55.93,-0.2 -106.02,-22.04 -142.11,-57.7 -36.45,-35.88 -58.65,-85.67 -58.65,-141.28zm406.09 189.56c24.61,-24.31 43.78,-52.84 56.7,-84.81 12.74,-31.4 19.43,-66.56 19.43,-104.72 0,-76.21 -31.64,-145.6 -82.49,-195.87 -51.07,-50.49 -121.59,-81.91 -198.98,-81.91 -77.41,0 -147.89,31.42 -198.96,81.91 -50.85,50.29 -82.5,119.66 -82.5,195.83 0,38.15 6.73,73.31 19.47,104.8 12.84,31.95 32.01,60.43 56.68,84.81l40.56 40.08 -50.27 26.92c-70.52,37.75 -129.17,93.32 -169.81,160.63 -39.22,64.94 -61.6,141 -61.6,222.63l-0.16 81.55c0.18,10.31 4.8,20.07 12.09,27.26 7.51,7.41 17.66,12.12 28.41,12.12l805.88 0c10.75,0 20.92,-4.7 28.43,-12.12 7.29,-7.19 11.91,-16.94 11.91,-27.26l0 -81.59c0,-78.16 -22.04,-152.21 -60.07,-216.77 -40.1,-68.11 -98.13,-126.01 -166.98,-167.46l-46.35 -27.91 38.6 -38.11zm-2024.22 450.25c0,-99.43 41.37,-190.02 107.87,-255.78 66.32,-65.52 157.68,-106.26 257.95,-106.26 100.22,0 191.59,40.75 257.87,106.28 66.48,65.72 107.83,156.37 107.83,255.8l0 41.97 -731.51 -0.06 0 -41.95zm158.66 -639.81c0,-55.53 22.3,-105.32 58.69,-141.3 36.2,-35.78 86.27,-57.66 142.13,-57.66 55.77,0 105.88,21.92 142.11,57.76 36.39,35.8 58.61,85.59 58.61,141.22 0,55.61 -22.22,105.4 -58.51,141.3 -36.14,35.72 -86.11,57.58 -141.93,57.66l-9.9 0.36c-48.92,0 -95.07,-21.26 -129.71,-55.25 -33.89,-33.25 -57.06,-79.18 -60.86,-129.29 -0.44,-5.34 -0.64,-10.27 -0.64,-14.79zm412.43 189.56c24.61,-24.31 43.78,-52.84 56.7,-84.81 12.74,-31.4 19.43,-66.56 19.43,-104.72 0,-76.23 -31.64,-145.64 -82.47,-195.89 -51.19,-50.61 -121.67,-82.07 -198.9,-82.07 -77.47,0.18 -147.99,31.6 -199.06,82.09 -50.85,50.29 -82.5,119.66 -82.5,195.83 0,38.13 6.71,73.25 19.45,104.74 12.86,31.99 32.09,60.56 56.84,85.05l40.36 39.92 -50.23 26.9c-69.66,37.31 -126.23,92 -165.17,158.16 -38.45,65.32 -59.81,142.25 -59.81,225.1l0 81.55c0,10.31 4.62,20.07 11.91,27.26 7.51,7.43 17.68,12.12 28.43,12.12l805.84 0c10.77,0 20.89,-4.64 28.27,-11.95l0.16 -0.18c7.29,-7.19 11.91,-16.92 11.91,-27.26l0 -81.59c-2.95,-78.16 -26.86,-152.47 -66.12,-217.47 -41.01,-67.95 -98.87,-125.57 -167.3,-166.76l-46.35 -27.91 38.6 -38.11zm2252.64 -2781.97l-74.32 0 0 72.55 74.32 0 0 -72.55zm-564.71 0l-74.36 0 0 72.55 74.36 0 0 -72.55zm-564.75 0l-74.32 0 0 72.55 74.32 0 0 -72.55zm-239.37 1795.74c0.08,10.37 4.76,20.21 12.12,27.5 7.39,7.31 17.48,11.95 28.27,11.95l1700.55 0.16c10.77,-0.18 20.92,-4.88 28.43,-12.28 7.29,-7.27 11.89,-17 11.89,-27.26 0,-10.35 -4.64,-20.09 -11.91,-27.28 -7.61,-7.53 -17.78,-12.3 -28.39,-12.3l-1700.55 -0.02c-10.79,0.18 -20.94,4.9 -28.45,12.3 -7.39,7.29 -12.07,17.06 -11.97,27.24zm-1213.7 -1756.3c0,-99.43 41.35,-190.04 107.85,-255.8 66.26,-65.52 157.62,-106.28 257.85,-106.28 100.28,0 191.67,40.77 257.95,106.28 66.52,65.72 107.89,156.37 107.89,255.8 0,99.41 -41.37,190.02 -107.89,255.78 -66.28,65.5 -157.68,106.26 -257.95,106.26 -100.32,-0.2 -191.69,-40.87 -257.87,-106.28 -66.48,-65.72 -107.83,-156.33 -107.83,-255.76zm1013 1312.71c10.77,0 20.92,-4.7 28.43,-12.1 7.29,-7.19 11.91,-16.94 11.91,-27.26l0 -280.5 771.87 0c10.79,0 20.87,-4.62 28.25,-11.93 7.37,-7.29 12.05,-17.12 12.05,-27.48l0.2 -319.95c-0.18,-10.33 -4.82,-20.07 -12.09,-27.26 -7.51,-7.41 -17.66,-12.1 -28.43,-12.1l-938.51 -0.22 -12.34 -13.3c-34.4,-37.07 -71.93,-70.88 -112.49,-99.65 -37.01,-26.26 -76.93,-48.54 -119.68,-65.44l-68.95 -27.28 58.73 -45.15c53.5,-41.13 97.93,-94.43 128.52,-155.91 28.91,-58.12 45.41,-123.76 45.41,-193.48 0,-120.09 -49.12,-228.7 -128.52,-307.18 -79.64,-78.68 -189.82,-127.38 -311.66,-127.38 -121.81,0 -231.97,48.68 -311.58,127.4 -79.4,78.48 -128.52,187.07 -128.52,307.16 0,69.74 16.5,135.36 45.41,193.5 30.66,61.62 75.04,114.94 128.34,155.89l55.93 42.98 -64.31 28.61c-121.69,54.11 -224.86,142.01 -296.83,251.88 -69.27,105.76 -109.58,232.1 -109.58,368.43l0 244.61c0,10.33 4.62,20.11 11.91,27.3 7.51,7.43 17.66,12.12 28.43,12.12l276.88 0.12 0 681.84c0,10.31 4.62,20.07 11.93,27.28 7.51,7.43 17.68,12.12 28.45,12.12 10.77,0 20.92,-4.72 28.43,-12.12 7.29,-7.19 11.91,-16.94 11.91,-27.28l0 -965.99c0,-10.33 -4.64,-20.09 -11.91,-27.28l-0.16 -0.18c-7.37,-7.31 -17.48,-11.95 -28.27,-11.95 -10.81,0 -20.92,4.64 -28.31,11.95l-0.16 0.18c-7.27,7.19 -11.91,16.94 -11.91,27.28l0 198.94 -242.96 0 0 -198.94c0,-165.29 68.33,-315.47 178.47,-424.35 109.9,-108.65 261.57,-176.06 428.41,-176.06 92.28,0 182.89,20.39 264.84,58.59 81.29,37.87 154.2,93.36 211.94,163.9l2.13 3.13c2.15,3.17 6.05,6.19 10.87,8.56 5.34,2.65 11.59,4.16 17.88,4.16l905.17 0.14 0 241 -771.85 0 -6.41 0.38c-10.27,1.51 -19.17,6.59 -25.44,13.56 -5.75,6.37 -9.2,14.24 -9.2,22l0.52 9.72c0,10.13 1.67,22.42 3.19,33.73 1.71,12.7 3.32,24.65 3.32,35.26l0 199 -242.92 0 0 -199.02c0,-10.33 -4.64,-20.07 -11.91,-27.26 -7.51,-7.43 -17.68,-12.12 -28.43,-12.12 -10.79,0 -20.94,4.72 -28.45,12.12 -7.27,7.19 -11.91,16.92 -11.91,27.24l0 959.78c0,10.31 4.62,20.07 11.93,27.28 7.51,7.41 17.66,12.12 28.43,12.12 10.65,0.18 20.79,-4.54 28.27,-11.95 7.39,-7.31 12.07,-17.12 12.07,-27.46l0 -675.73 283.27 0zm-606.84 682l-0.1 -401.46c0,-10.33 -4.64,-20.09 -11.91,-27.28l-0.16 -0.18c-7.39,-7.31 -17.48,-11.93 -28.29,-11.93 -10.79,0 -20.92,4.72 -28.43,12.12 -7.27,7.19 -11.91,16.92 -11.91,27.24l-0.16 401.48c0.18,10.25 4.78,19.99 12.09,27.3 7.51,7.39 17.66,12.1 28.41,12.1 10.79,0 20.96,-4.72 28.45,-12.1 7.41,-7.39 12.09,-17.16 12.01,-27.3z"></path> </g> </g> </svg>
