<?xml version="1.0" encoding="UTF-8"?>
<svg xmlns="http://www.w3.org/2000/svg" xmlns:xlink="http://www.w3.org/1999/xlink" xmlns:xodm="http://www.corel.com/coreldraw/odm/2003" xml:space="preserve" width="8.7207mm" height="8.7207mm" version="1.1" style="shape-rendering:geometricPrecision; text-rendering:geometricPrecision; image-rendering:optimizeQuality; fill-rule:evenodd; clip-rule:evenodd" viewBox="0 0 1939.87 1939.87"> <defs> <style type="text/css"> .fil0 {fill:white;fill-rule:nonzero} </style> </defs> <g id="Layer_x0020_1"> <metadata id="CorelCorpID_0Corel-Layer"></metadata> <path class="fil0" d="M969.92 0c267.8,0 510.35,108.57 685.86,284.08 175.51,175.51 284.08,418.06 284.08,685.86 0,267.8 -108.57,510.33 -284.08,685.84 -175.51,175.51 -418.06,284.08 -685.86,284.08 -267.8,0 -510.33,-108.57 -685.84,-284.08 -175.51,-175.51 -284.08,-418.04 -284.08,-685.84 0,-267.8 108.57,-510.35 284.08,-685.86 175.51,-175.51 418.04,-284.08 685.84,-284.08zm645.91 324.03c-165.28,-165.28 -393.68,-267.53 -645.91,-267.53 -252.23,0 -480.61,102.26 -645.89,267.53 -165.28,165.28 -267.53,393.68 -267.53,645.91 0,252.23 102.26,480.61 267.53,645.89 165.28,165.28 393.66,267.53 645.89,267.53 252.23,0 480.64,-102.26 645.91,-267.53 165.28,-165.28 267.53,-393.66 267.53,-645.89 0,-252.23 -102.26,-480.64 -267.53,-645.91zm-298.85 362.56c0,35.17 -28.54,63.69 -63.71,63.69 -35.19,0 -63.69,-28.52 -63.69,-63.69 0,-35.17 28.52,-63.71 63.69,-63.71 35.17,0 63.71,28.54 63.71,63.71zm-170.08 106.35c-45.27,-45.27 -107.86,-73.27 -177,-73.27 -69.09,0 -131.69,28.01 -176.98,73.27 -45.27,45.29 -73.27,107.86 -73.27,176.98 0,69.14 28.01,131.73 73.27,177 45.29,45.27 107.89,73.3 176.98,73.3 69.14,0 131.73,-28.03 177,-73.3 45.27,-45.27 73.3,-107.86 73.3,-177 0,-69.11 -28.03,-131.69 -73.3,-176.98zm-176.95 -22.22c54.92,0.11 104.73,22.38 140.85,58.46 36.06,36.08 58.35,85.89 58.35,140.76 0,54.99 -22.31,104.79 -58.37,140.85 -36.04,36.06 -85.86,58.37 -140.87,58.3 -54.94,-0.04 -104.75,-22.33 -140.78,-58.35 -36.1,-36.01 -58.41,-85.82 -58.41,-140.81 0,-54.99 22.31,-104.82 58.37,-140.87 36.04,-36.04 85.86,-58.35 140.87,-58.35zm-139.78 -257.57c33.57,-0.51 72.87,-0.67 139.74,-0.67 66.91,0 106.24,0.16 139.78,0.67 29.76,0.47 47.91,1.22 75.7,2.51 27.41,1.25 48.56,4.18 65.33,7.72 16.93,3.6 29.67,7.94 39.91,11.88 13.01,4.78 25.49,11.06 37.19,18.69 11.57,7.54 22.29,16.31 31.92,26.18 9.88,9.63 18.64,20.35 26.16,31.92 7.65,11.7 13.93,24.18 18.71,37.17 3.94,10.17 8.25,22.87 11.88,39.93 3.54,16.77 6.47,37.93 7.72,65.33 1.27,27.78 2.05,45.93 2.49,75.7 0.53,33.54 0.69,72.89 0.69,139.78 0,66.89 -0.13,106.11 -0.67,139.74 -0.47,29.79 -1.22,47.91 -2.51,75.7 -1.25,27.41 -4.18,48.56 -7.72,65.33 -3.65,17.13 -8.05,29.96 -12.03,40.31 -10.08,26.11 -25.4,49.47 -44.69,68.74 -19.26,19.29 -42.62,34.61 -68.74,44.69 -10.32,3.96 -23.16,8.39 -40.31,12.03 -16.75,3.51 -37.93,6.45 -65.33,7.7 -27.76,1.29 -45.91,2.07 -75.7,2.51 -33.54,0.53 -72.87,0.69 -139.74,0.69 -66.71,0 -106.06,-0.16 -139.69,-0.67 -29.87,-0.47 -48,-1.25 -75.79,-2.51 -27.38,-1.25 -48.56,-4.2 -65.31,-7.72 -16.95,-3.6 -29.7,-7.96 -39.93,-11.88 -13.01,-4.78 -25.49,-11.06 -37.19,-18.71 -11.57,-7.52 -22.29,-16.28 -31.92,-26.16 -9.85,-9.63 -18.64,-20.33 -26.16,-31.92 -7.65,-11.7 -13.93,-24.16 -18.73,-37.17 -3.89,-10.23 -8.25,-23 -11.86,-39.93 -3.51,-16.77 -6.45,-37.95 -7.7,-65.33 -1.29,-27.78 -2.05,-45.91 -2.51,-75.7 -0.53,-33.57 -0.69,-72.89 -0.69,-139.76 0,-66.89 0.16,-106.22 0.69,-139.76 0.47,-29.81 1.22,-47.94 2.51,-75.7 1.25,-27.41 4.18,-48.56 7.72,-65.33 3.58,-16.93 7.92,-29.67 11.88,-39.93 4.76,-12.99 11.03,-25.47 18.69,-37.19 7.52,-11.59 16.31,-22.29 26.16,-31.92 9.63,-9.88 20.35,-18.64 31.92,-26.16 11.7,-7.65 24.2,-13.93 37.19,-18.71 10.23,-3.92 22.98,-8.25 39.93,-11.88 16.77,-3.51 37.93,-6.47 65.33,-7.72 27.72,-1.27 45.87,-2.02 75.68,-2.49zm645.18 238.91c-1.22,-27.14 -3.98,-49.81 -7.96,-69.58 -3.89,-19.44 -9.1,-36.37 -15.24,-52.23l-0.09 -0.18c-6.12,-16.24 -13.95,-31.72 -23.29,-46.09 -9.36,-14.35 -20.35,-27.74 -32.7,-39.91l-0.27 -0.27c-12.17,-12.35 -25.56,-23.36 -39.93,-32.72 -14.37,-9.36 -29.85,-17.17 -46.07,-23.29l-0.18 -0.09c-15.59,-6.03 -32.48,-11.19 -52.23,-15.13 -19.78,-4.07 -42.46,-6.81 -69.58,-8.03 -28.5,-1.31 -47.25,-2.14 -75.96,-2.58 -25.16,-0.4 -65.93,-0.53 -141.9,-0.53 -75.99,0 -116.76,0.13 -141.92,0.53 -28.74,0.42 -47.47,1.25 -75.99,2.56 -27.12,1.22 -49.78,3.98 -69.56,7.96 -19.44,3.89 -36.37,9.1 -52.25,15.24l-0.16 0.09c-16.24,6.12 -31.74,13.95 -46.11,23.29 -14.33,9.36 -27.74,20.35 -39.91,32.7l-0.24 0.27c-12.37,12.17 -23.36,25.58 -32.74,39.93 -9.34,14.35 -17.17,29.85 -23.29,46.07l-0.09 0.18c-6.12,15.84 -11.3,32.79 -15.22,52.23 -3.96,19.78 -6.72,42.44 -7.94,69.56 -1.31,28.52 -2.14,47.27 -2.58,75.99 -0.4,25.18 -0.53,65.93 -0.53,141.92 0,75.99 0.13,116.76 0.53,141.92 0.44,28.72 1.27,47.45 2.58,75.96 1.22,27.12 3.98,49.81 7.94,69.56 3.92,19.44 9.12,36.37 15.26,52.25l0.09 0.18c6.12,16.24 13.95,31.74 23.29,46.11 9.36,14.33 20.33,27.72 32.72,39.88l0.24 0.24c12.17,12.37 25.56,23.36 39.93,32.72 14.35,9.34 29.85,17.17 46.07,23.29l0.18 0.09c15.86,6.14 32.81,11.34 52.25,15.24 19.75,3.96 42.44,6.72 69.56,7.96 28.52,1.29 47.27,2.11 75.99,2.56 25.16,0.4 65.91,0.53 141.9,0.53 75.96,0 116.81,-0.13 141.9,-0.53 28.74,-0.44 47.47,-1.27 75.99,-2.58 27.12,-1.22 49.81,-3.98 69.56,-7.94 19.44,-3.89 36.39,-9.12 52.23,-15.24 32.63,-12.61 61.93,-31.94 86.24,-56.28 24.36,-24.34 43.67,-53.63 56.28,-86.24 6.14,-15.88 11.34,-32.81 15.24,-52.25 3.98,-19.78 6.74,-42.44 7.96,-69.56 1.31,-28.52 2.14,-47.25 2.56,-75.99 0.42,-25.16 0.53,-66.02 0.53,-141.9 0,-75.9 -0.11,-116.76 -0.53,-141.92 -0.42,-28.72 -1.25,-47.47 -2.56,-75.96z"></path> </g> </svg>
