<?xml version="1.0" encoding="UTF-8"?>
<svg xmlns="http://www.w3.org/2000/svg" xmlns:xlink="http://www.w3.org/1999/xlink" xmlns:xodm="http://www.corel.com/coreldraw/odm/2003" xml:space="preserve" width="551px" height="646px" version="1.1" style="shape-rendering:geometricPrecision; text-rendering:geometricPrecision; image-rendering:optimizeQuality; fill-rule:evenodd; clip-rule:evenodd" viewBox="0 0 551 645.92"> <defs> <style type="text/css"> .fil2 {fill:#3895A3} .fil3 {fill:white;fill-rule:nonzero} .fil0 {fill:#3895A3;fill-rule:nonzero} .fil1 {fill:#FF6600;fill-rule:nonzero} </style> </defs> <g id="Layer_x0020_1"> <metadata id="CorelCorpID_0Corel-Layer"></metadata> <g id="_105553199938976"> <path class="fil0" d="M53.73 550.39c-0.66,-2.96 -1.76,-5.64 -3.33,-8.03 -1.57,-2.38 -3.61,-4.29 -6.09,-5.68 -2.47,-1.39 -5.41,-2.08 -8.82,-2.08l-8.62 0 0 -1.59 8.62 0c3.41,0 6.35,-0.64 8.82,-1.92 2.48,-1.28 4.52,-3.05 6.09,-5.31 1.57,-2.25 2.67,-4.86 3.33,-7.83l1.66 0 0 32.44 -1.66 0zm20.24 -66.6l0 27.2 -1.66 0c-0.66,-4.74 -2.01,-9.04 -4.05,-12.92 -2.03,-3.87 -4.78,-6.94 -8.23,-9.22 -3.45,-2.28 -7.64,-3.4 -12.6,-3.4l-14.93 0 0 96.19 13.27 0 0 1.66 -45.77 0 0 -1.66 11.94 0 0 -96.19 -11.94 0 0 -1.66 73.97 0zm14.06 68.06l0 -1.66 39.54 0 0 1.66 -39.54 0zm31.25 -69.99l34.62 99.78 9.89 0 0 1.66 -45.44 0 0 -1.66 11.67 0 -24.87 -76.82 -26.94 76.82 14.86 0 0 1.66 -29.19 0 0 -1.66 12.41 0 35.16 -99.78 7.83 0zm73.76 50.82l0 -1.06 19.24 0c4.24,0 7.8,-0.82 10.66,-2.45 2.85,-1.64 4.99,-4.16 6.43,-7.57 1.44,-3.4 2.15,-7.74 2.15,-13 0,-5.26 -0.71,-9.62 -2.15,-13.05 -1.44,-3.42 -3.58,-5.97 -6.43,-7.63 -2.86,-1.66 -6.42,-2.47 -10.66,-2.47l-43.12 0 0 -1.66 46.43 0c7.35,0 13.8,0.86 19.37,2.61 5.58,1.74 9.93,4.44 13.07,8.09 3.14,3.65 4.71,8.36 4.71,14.11 0,5.75 -1.46,10.39 -4.4,13.93 -2.94,3.54 -7.19,6.11 -12.74,7.72 -5.54,1.61 -12.22,2.43 -20.01,2.43l-22.55 0zm-23.88 50.62l0 -1.66 47.1 0 0 1.66 -47.1 0zm13.27 -0.87l0 -97.71 20.56 0 0 97.71 -20.56 0zm65.67 1.86c-4.51,0 -8.05,-0.7 -10.64,-2.16 -2.59,-1.44 -4.48,-3.37 -5.7,-5.8 -1.22,-2.43 -2.01,-5.15 -2.37,-8.16 -0.35,-3.01 -0.53,-6.13 -0.55,-9.35 -0.02,-3.23 -0.15,-6.37 -0.4,-9.4 -0.24,-3.03 -0.86,-5.75 -1.83,-8.18 -0.98,-2.44 -2.59,-4.38 -4.85,-5.82 -2.25,-1.44 -5.42,-2.15 -9.48,-2.15l-19.24 0 0 -0.92 29.85 0c6.15,0 11.04,0.88 14.64,2.67 3.6,1.79 6.28,4.16 8.05,7.1 1.77,2.94 2.94,6.17 3.49,9.67 0.56,3.49 0.84,6.99 0.87,10.5 0.02,3.51 0.08,6.74 0.19,9.68 0.11,2.95 0.58,5.31 1.42,7.08 0.84,1.77 2.41,2.66 4.71,2.66 1.42,0 2.74,-0.16 3.96,-0.47 1.22,-0.31 2.27,-0.68 3.21,-1.13l0.6 1.53c-1.07,0.57 -3.01,1.14 -5.85,1.76 -2.83,0.6 -6.19,0.89 -10.08,0.89zm35.7 -100.5l0 97.85 15.32 0 0 1.66 -30.45 0 0 -1.66 13.4 0 0 -96.19 -13.4 0 0 -1.66 15.13 0zm81.45 0l0 1.66 -13.99 0 0 99.17 -2.19 0 -66.47 -100.83 24.48 0 42.52 65.67 0 -64.01 -15.12 0 0 -1.66 30.77 0zm29.52 68.06l0 -1.66 39.54 0 0 1.66 -39.54 0zm31.25 -69.99l34.63 99.78 9.89 0 0 1.66 -45.45 0 0 -1.66 11.68 0 -24.88 -76.82 -26.93 76.82 14.86 0 0 1.66 -29.19 0 0 -1.66 12.41 0 35.16 -99.78 7.82 0zm49.49 101.44l0 -1.66 51.08 -96.19 -19.77 0c-6.06,0 -10.88,0.9 -14.48,2.74 -3.61,1.83 -6.35,4.47 -8.23,7.89 -1.88,3.43 -3.27,7.52 -4.16,12.25l-1.66 0 0 -24.54 71.52 0 0 1.66 -51.08 96.19 23.75 0c6.05,0 10.9,-0.97 14.5,-2.9 3.61,-1.92 6.35,-4.78 8.23,-8.56 1.88,-3.78 3.25,-8.47 4.14,-14.08l1.65 0 0 27.2 -75.49 0z"></path> <path class="fil1" d="M246.52 645.92c-1.42,0 -2.76,-0.11 -4.01,-0.34 -1.27,-0.22 -2.42,-0.57 -3.46,-1.02 -1.04,-0.46 -1.99,-1 -2.85,-1.62 -0.52,-0.38 -1.01,-0.78 -1.47,-1.22l-2.74 3.92 -2.18 0 0 -14.92 2.58 0 0.16 0.81c0.16,0.85 0.38,1.66 0.64,2.45 0.25,0.77 0.55,1.51 0.9,2.24 0.36,0.71 0.75,1.37 1.18,1.97 0.44,0.59 0.93,1.15 1.47,1.67 0.54,0.5 1.13,0.95 1.77,1.35 0.66,0.4 1.36,0.74 2.11,1.03 0.76,0.28 1.59,0.5 2.47,0.65 0.89,0.14 1.85,0.21 2.9,0.21 1.06,0 2.04,-0.09 2.92,-0.26 0.89,-0.18 1.71,-0.45 2.46,-0.8 0.73,-0.35 1.38,-0.77 1.94,-1.28 0.57,-0.5 1.05,-1.08 1.45,-1.73 0.39,-0.65 0.69,-1.39 0.89,-2.2 0.2,-0.83 0.31,-1.74 0.31,-2.75 0,-0.84 -0.1,-1.6 -0.3,-2.27 -0.19,-0.67 -0.49,-1.28 -0.88,-1.82 -0.41,-0.57 -0.89,-1.11 -1.45,-1.62 -0.55,-0.51 -1.18,-0.99 -1.88,-1.43 -0.73,-0.46 -1.5,-0.9 -2.3,-1.32 -0.8,-0.43 -1.64,-0.84 -2.51,-1.22l-2.71 -1.23 -2.71 -1.29c-0.94,-0.45 -1.83,-0.93 -2.67,-1.45 -0.85,-0.52 -1.67,-1.08 -2.45,-1.68 -0.8,-0.62 -1.52,-1.3 -2.17,-2.05 -0.65,-0.74 -1.22,-1.56 -1.71,-2.42 -0.5,-0.9 -0.88,-1.89 -1.13,-2.97 -0.24,-1.07 -0.37,-2.21 -0.37,-3.44 0,-2.53 0.66,-4.75 1.96,-6.65 0.65,-0.95 1.4,-1.79 2.25,-2.52 0.85,-0.74 1.81,-1.37 2.88,-1.9 1.06,-0.52 2.17,-0.91 3.34,-1.17 1.16,-0.25 2.37,-0.39 3.61,-0.39 1.1,0 2.16,0.09 3.19,0.27 1.02,0.17 1.99,0.43 2.91,0.78 0.93,0.36 1.8,0.82 2.61,1.38 0.5,0.33 0.97,0.71 1.41,1.11l2.72 -3.54 2.15 0 0 14.92 -2.62 0 -0.13 -0.85c-0.2,-1.32 -0.48,-2.51 -0.85,-3.58 -0.37,-1.04 -0.82,-1.98 -1.36,-2.8 -0.53,-0.81 -1.13,-1.52 -1.8,-2.12 -0.66,-0.6 -1.38,-1.09 -2.17,-1.47 -0.79,-0.39 -1.64,-0.69 -2.56,-0.88 -0.91,-0.2 -1.88,-0.3 -2.9,-0.3 -1.4,0 -2.62,0.16 -3.65,0.49 -0.99,0.31 -1.82,0.79 -2.49,1.41 -0.66,0.63 -1.16,1.36 -1.5,2.18 -0.33,0.84 -0.5,1.8 -0.5,2.86 0,0.73 0.09,1.4 0.28,1.99 0.19,0.59 0.47,1.13 0.84,1.62 0.41,0.52 0.88,1.02 1.42,1.48 0.54,0.47 1.16,0.91 1.84,1.32 0.7,0.42 1.45,0.84 2.25,1.25 0.81,0.41 1.64,0.81 2.48,1.19 0.9,0.4 1.79,0.81 2.68,1.24 0.92,0.44 1.81,0.89 2.67,1.33 0.91,0.47 1.79,0.98 2.63,1.54 0.83,0.55 1.63,1.16 2.41,1.81 0.79,0.66 1.5,1.4 2.13,2.18 0.62,0.79 1.18,1.66 1.66,2.59 0.48,0.94 0.84,1.99 1.08,3.14 0.24,1.13 0.36,2.35 0.36,3.66 0,1.43 -0.16,2.79 -0.47,4.06 -0.32,1.27 -0.8,2.46 -1.43,3.55 -0.63,1.1 -1.41,2.07 -2.31,2.92 -0.9,0.85 -1.93,1.58 -3.09,2.17 -1.16,0.6 -2.42,1.05 -3.78,1.34 -1.35,0.29 -2.8,0.44 -4.35,0.44zm-144.13 -15.87l-15.03 0 -4.25 12.17 6.66 0 0 2.79 -15.82 0 -0.01 -2.79 6.17 0 16.57 -47.26 2.22 0 16.38 47.26 5.03 0 0 2.79 -20.22 0 0 -2.79 6.23 0 -3.93 -12.17zm-14.06 -2.78l13.17 0 -6.32 -19.6 -6.85 19.6zm45.1 -28.61l-6.88 0 0 -2.79 21.74 0c1.63,0 3.16,0.11 4.59,0.33 1.43,0.22 2.78,0.55 4.03,1 1.27,0.46 2.39,1.04 3.38,1.74 1,0.71 1.85,1.54 2.56,2.5 0.72,0.97 1.26,2.07 1.62,3.31 0.36,1.22 0.53,2.55 0.53,4 0,2.93 -0.67,5.32 -2.02,7.17 -0.67,0.92 -1.5,1.72 -2.48,2.4 -0.96,0.66 -2.08,1.19 -3.33,1.6l-0.76 0.23 0.46 0.21c0.98,0.45 1.83,0.98 2.57,1.59 0.75,0.63 1.38,1.33 1.88,2.11 0.49,0.75 0.9,1.55 1.22,2.37 0.32,0.82 0.57,1.68 0.73,2.58 0.16,0.84 0.28,1.7 0.36,2.55 0.08,0.86 0.13,1.73 0.14,2.6l0.05 2.33 0.08 2.2c0.03,0.65 0.1,1.23 0.2,1.73 0.1,0.48 0.23,0.9 0.39,1.25 0.1,0.23 0.25,0.4 0.42,0.5 0.21,0.12 0.49,0.18 0.85,0.18 0.3,0 0.58,-0.02 0.83,-0.04 0.27,-0.04 0.53,-0.08 0.75,-0.13l0.7 -0.21 0.6 -0.24 0.97 -0.46 0.99 2.54 -0.78 0.42c-0.31,0.16 -0.68,0.31 -1.12,0.45 -0.4,0.13 -0.87,0.24 -1.4,0.34 -0.54,0.1 -1.11,0.18 -1.7,0.23 -0.61,0.05 -1.25,0.08 -1.91,0.08 -0.98,0 -1.87,-0.1 -2.66,-0.28 -0.83,-0.2 -1.55,-0.5 -2.15,-0.9 -0.59,-0.4 -1.1,-0.86 -1.54,-1.39 -0.43,-0.53 -0.79,-1.13 -1.05,-1.79 -0.25,-0.61 -0.45,-1.27 -0.61,-1.96 -0.15,-0.71 -0.26,-1.43 -0.32,-2.17 -0.05,-0.67 -0.1,-1.4 -0.14,-2.18 -0.03,-0.72 -0.06,-1.48 -0.07,-2.26 -0.01,-0.72 -0.04,-1.45 -0.08,-2.18 -0.04,-0.72 -0.1,-1.43 -0.17,-2.12 -0.06,-0.66 -0.18,-1.28 -0.33,-1.88 -0.15,-0.58 -0.34,-1.14 -0.57,-1.66 -0.2,-0.48 -0.47,-0.9 -0.8,-1.28 -0.33,-0.37 -0.73,-0.7 -1.2,-0.98 -0.45,-0.28 -1,-0.49 -1.65,-0.63 -0.68,-0.15 -1.47,-0.23 -2.38,-0.23l-6.54 0 0 20.78 6.92 0 0 2.79 -21.8 0 0 -2.79 6.88 0 0 -43.56zm8 19.99l6.86 0c0.92,0 1.77,-0.1 2.54,-0.29 0.76,-0.19 1.45,-0.48 2.06,-0.86 0.61,-0.38 1.15,-0.84 1.62,-1.39 0.47,-0.55 0.87,-1.19 1.2,-1.91 0.33,-0.74 0.58,-1.56 0.75,-2.46 0.17,-0.9 0.25,-1.9 0.25,-2.99 0,-1.1 -0.08,-2.11 -0.25,-3.02 -0.17,-0.9 -0.42,-1.74 -0.76,-2.5 -0.32,-0.75 -0.72,-1.41 -1.2,-1.98 -0.47,-0.55 -1.01,-1.03 -1.62,-1.42 -0.61,-0.39 -1.3,-0.68 -2.05,-0.88 -0.76,-0.19 -1.61,-0.29 -2.54,-0.29l-6.86 0 0 19.99zm38.92 25.36l0 -1.79 6.91 0 0 -43.56 -5.28 0c-0.88,0 -1.65,0.07 -2.33,0.21 -0.66,0.14 -1.23,0.35 -1.73,0.62 -0.5,0.27 -0.94,0.6 -1.32,0.98 -0.38,0.38 -0.71,0.83 -0.98,1.34 -0.3,0.53 -0.54,1.12 -0.75,1.76 -0.2,0.64 -0.37,1.35 -0.49,2.14 -0.12,0.81 -0.21,1.65 -0.27,2.52 -0.06,0.86 -0.09,1.79 -0.09,2.78l0 1 -2.78 0 0 -16.14 40.02 0 0 16.14 -2.79 0 0 -1c0,-1 -0.03,-1.94 -0.09,-2.81 -0.06,-0.89 -0.15,-1.72 -0.27,-2.49 -0.12,-0.78 -0.29,-1.5 -0.49,-2.13 -0.2,-0.64 -0.45,-1.23 -0.75,-1.77 -0.28,-0.5 -0.61,-0.95 -1,-1.33 -0.38,-0.38 -0.83,-0.71 -1.34,-0.99 -0.49,-0.27 -1.07,-0.48 -1.73,-0.62 -0.67,-0.14 -1.44,-0.21 -2.28,-0.21l-5.29 0 0 43.56 6.92 0 0 2.79 -21.8 0 0 -1zm275.62 -1.1c1.28,0 2.43,-0.15 3.44,-0.46 0.98,-0.3 1.85,-0.75 2.59,-1.34 0.78,-0.63 1.46,-1.35 2.06,-2.18 0.6,-0.83 1.11,-1.78 1.54,-2.83 0.44,-1.1 0.81,-2.25 1.1,-3.46 0.3,-1.21 0.53,-2.5 0.68,-3.86 0.17,-1.39 0.29,-2.77 0.36,-4.14 0.08,-1.36 0.12,-2.75 0.12,-4.2 0,-1.43 -0.05,-2.83 -0.14,-4.2 -0.09,-1.37 -0.24,-2.75 -0.43,-4.11 -0.18,-1.35 -0.44,-2.65 -0.76,-3.86 -0.32,-1.23 -0.71,-2.38 -1.17,-3.48 -0.44,-1.05 -0.97,-2.01 -1.58,-2.85 -0.6,-0.83 -1.29,-1.56 -2.05,-2.17 -0.74,-0.6 -1.58,-1.05 -2.53,-1.35 -0.96,-0.3 -2.04,-0.45 -3.23,-0.45 -1.18,0 -2.26,0.15 -3.22,0.45 -0.95,0.3 -1.79,0.75 -2.53,1.35 -0.76,0.61 -1.45,1.34 -2.05,2.17 -0.62,0.85 -1.15,1.8 -1.6,2.86 -0.45,1.09 -0.84,2.25 -1.17,3.46 -0.32,1.22 -0.58,2.51 -0.77,3.87 -0.19,1.37 -0.33,2.75 -0.43,4.14 -0.09,1.36 -0.14,2.75 -0.14,4.17 0,1.45 0.04,2.85 0.12,4.22 0.08,1.36 0.21,2.73 0.38,4.12 0.16,1.36 0.39,2.65 0.69,3.86 0.29,1.22 0.66,2.37 1.09,3.46 0.42,1.04 0.93,1.99 1.53,2.82 0.6,0.83 1.3,1.56 2.09,2.18 0.75,0.6 1.62,1.05 2.61,1.35 1,0.31 2.13,0.46 3.4,0.46zm0 2.73c-1.65,0 -3.23,-0.17 -4.72,-0.49 -1.5,-0.33 -2.91,-0.83 -4.24,-1.49 -1.31,-0.66 -2.53,-1.45 -3.64,-2.36 -1.1,-0.91 -2.12,-1.95 -3.02,-3.12 -0.9,-1.15 -1.7,-2.41 -2.38,-3.75 -0.68,-1.33 -1.25,-2.77 -1.72,-4.29 -0.46,-1.52 -0.81,-3.09 -1.04,-4.69 -0.23,-1.63 -0.35,-3.29 -0.35,-5.01 0,-1.72 0.13,-3.39 0.37,-5.01 0.25,-1.62 0.62,-3.2 1.12,-4.72 0.49,-1.5 1.09,-2.93 1.8,-4.27 0.7,-1.34 1.52,-2.59 2.43,-3.75 0.92,-1.16 1.94,-2.2 3.06,-3.12 1.12,-0.91 2.33,-1.7 3.62,-2.35 1.31,-0.66 2.7,-1.15 4.15,-1.48 1.46,-0.33 2.98,-0.5 4.56,-0.5 1.58,0 3.11,0.17 4.57,0.5 1.45,0.33 2.84,0.82 4.14,1.48 1.29,0.65 2.49,1.44 3.61,2.35 1.11,0.92 2.14,1.96 3.07,3.12 0.92,1.16 1.73,2.41 2.44,3.75 0.7,1.34 1.3,2.77 1.79,4.28 0.49,1.51 0.86,3.08 1.1,4.7 0.24,1.62 0.36,3.3 0.37,5.02 0,1.71 -0.12,3.38 -0.35,5 -0.23,1.61 -0.57,3.18 -1.03,4.7 -0.46,1.51 -1.04,2.95 -1.71,4.28 -0.68,1.34 -1.48,2.6 -2.37,3.76 -0.91,1.17 -1.92,2.21 -3.03,3.12 -1.11,0.91 -2.32,1.7 -3.63,2.35 -1.33,0.67 -2.74,1.17 -4.24,1.5 -1.49,0.32 -3.07,0.49 -4.73,0.49zm-46.28 -1.63l0 -1.79 6.88 0 0 -43.56 -6.88 0 0 -2.79 22.43 0 0 2.79 -7.55 0 0 43.56 7.55 0 0 2.79 -22.43 0 0 -1zm-31.31 -1.79l4.94 0c1.37,0 2.61,-0.15 3.74,-0.44 1.11,-0.29 2.12,-0.73 3.01,-1.31 0.91,-0.59 1.73,-1.29 2.46,-2.09 0.74,-0.79 1.39,-1.71 1.95,-2.73 0.57,-1.04 1.07,-2.14 1.47,-3.3 0.41,-1.17 0.75,-2.42 1,-3.74 0.26,-1.35 0.45,-2.69 0.58,-4.04 0.13,-1.34 0.19,-2.71 0.19,-4.13 0,-1.41 -0.07,-2.79 -0.21,-4.13 -0.14,-1.34 -0.36,-2.68 -0.65,-4.02 -0.28,-1.31 -0.64,-2.56 -1.08,-3.75 -0.43,-1.18 -0.94,-2.29 -1.52,-3.32 -0.57,-1 -1.23,-1.91 -1.97,-2.71 -0.75,-0.81 -1.57,-1.51 -2.47,-2.1 -0.9,-0.58 -1.88,-1.02 -2.94,-1.31 -1.08,-0.3 -2.26,-0.44 -3.56,-0.44l-4.94 0 0 43.56zm4.94 -46.35c2.42,0 4.68,0.27 6.77,0.81 2.11,0.53 4.06,1.34 5.84,2.43 1.77,1.08 3.34,2.36 4.7,3.83 1.37,1.49 2.54,3.16 3.49,5.01 0.95,1.85 1.67,3.82 2.14,5.91 0.48,2.09 0.71,4.29 0.71,6.58 0,1.73 -0.14,3.4 -0.42,5.01 -0.28,1.61 -0.71,3.16 -1.29,4.66 -0.57,1.5 -1.27,2.89 -2.07,4.19 -0.82,1.31 -1.75,2.52 -2.8,3.64 -1.05,1.11 -2.2,2.11 -3.46,2.97 -1.24,0.87 -2.59,1.62 -4.04,2.24 -1.45,0.61 -2.98,1.08 -4.57,1.39 -1.6,0.31 -3.27,0.47 -5,0.47l-18.57 0 0 -2.79 5.63 0 0 -43.56 -5.63 0 0 -2.79 18.57 0zm-24.93 1l0 1.79 -6.07 0 0 30.89c0,5.43 -1.21,9.51 -3.64,12.23 -1.25,1.4 -2.86,2.44 -4.83,3.13 -1.92,0.67 -4.17,1.01 -6.76,1.01 -2.8,0 -5.25,-0.32 -7.34,-0.95 -2.13,-0.64 -3.89,-1.63 -5.27,-2.94 -1.38,-1.32 -2.42,-3.05 -3.1,-5.17 -0.67,-2.06 -1,-4.5 -1,-7.31l0 -30.89 -5.63 0 0 -2.79 19.91 0 0 2.79 -6.28 0 0 30.27c0,1.01 0.04,1.98 0.11,2.91 0.08,0.97 0.19,1.89 0.33,2.77 0.14,0.85 0.35,1.66 0.6,2.4 0.25,0.73 0.56,1.42 0.92,2.05 0.35,0.61 0.76,1.15 1.25,1.62 0.49,0.47 1.05,0.88 1.69,1.23 0.63,0.34 1.36,0.6 2.19,0.77 0.85,0.18 1.81,0.27 2.87,0.27 1.28,0 2.44,-0.12 3.48,-0.36 1.03,-0.23 1.96,-0.58 2.78,-1.05 0.81,-0.44 1.52,-1.02 2.12,-1.71 0.62,-0.71 1.14,-1.54 1.55,-2.5 0.43,-0.98 0.75,-2.12 0.97,-3.4 0.22,-1.3 0.33,-2.76 0.33,-4.38l0 -30.89 -5.84 0 0 -2.79 14.66 0 0 1zm-80.97 47.14l0 -1.79 6.91 0 0 -43.56 -5.28 0c-0.87,0 -1.65,0.07 -2.33,0.21 -0.66,0.14 -1.23,0.35 -1.73,0.62 -0.49,0.27 -0.93,0.6 -1.32,0.98 -0.38,0.39 -0.71,0.83 -0.98,1.34 -0.29,0.53 -0.54,1.12 -0.75,1.76 -0.2,0.64 -0.36,1.35 -0.48,2.14 -0.13,0.81 -0.22,1.65 -0.28,2.52 -0.06,0.86 -0.09,1.79 -0.09,2.78l0 1 -2.78 0 0 -16.14 40.02 0 0 16.14 -2.79 0 0 -1c0,-1 -0.03,-1.94 -0.09,-2.8 -0.06,-0.9 -0.15,-1.73 -0.27,-2.5 -0.12,-0.78 -0.28,-1.5 -0.49,-2.13 -0.2,-0.64 -0.45,-1.23 -0.75,-1.77 -0.27,-0.5 -0.61,-0.95 -1,-1.33 -0.38,-0.38 -0.83,-0.71 -1.33,-0.99 -0.5,-0.27 -1.08,-0.48 -1.74,-0.62 -0.67,-0.14 -1.43,-0.21 -2.28,-0.21l-5.29 0 0 43.56 6.92 0 0 2.79 -21.8 0 0 -1z"></path> <path class="fil2" d="M275.5 20.49c111.94,0 202.68,90.74 202.68,202.68 0,35.16 -8.96,68.23 -24.71,97.05 -13.92,23.23 -31.03,39.93 -49.42,51.47 -54.43,33.85 -141.81,23.15 -167.69,-36.97 -2.66,-6.19 -12.13,-2.01 -9.37,4.11 29.66,65.73 124.65,72.61 179.5,36.74 3.47,-2.18 6.9,-4.54 10.26,-7.08 -36.5,35.49 -86.32,57.35 -141.25,57.35 -111.94,0 -202.68,-90.74 -202.68,-202.67 0,-111.94 90.74,-202.68 202.68,-202.68z"></path> <path class="fil3" d="M315.55 216.48l8.72 0c8.14,0 14.93,-0.98 20.31,-2.9 5.37,-1.92 9.4,-4.87 12.07,-8.84 2.66,-3.98 3.97,-9.08 3.97,-15.35l2.25 0 0 57.55 -2.25 0c0,-6.27 -1.31,-11.51 -3.97,-15.72 -2.67,-4.21 -6.7,-7.39 -12.07,-9.55 -5.38,-2.15 -12.17,-3.22 -20.31,-3.22l-8.04 0 -0.68 -1.97zm-79.7 -66.39l-23.02 65.98c-5.59,16.02 4.44,28.67 13.54,40.69l1.59 2.11c0.54,0.72 1.07,1.44 1.6,2.17 7.94,10.93 15.92,21.94 15.7,35.79 -0.34,20.78 -16.59,29.48 -35.51,29.55l-63.72 0 0 -2.11c12.59,0 33.64,-19.98 40.88,-40.71l61.16 -175.15 65.63 189.39c5.46,15.76 12.69,26.47 29.67,26.47l0 2.11 -81.41 0 0 -2.11 5.77 0c5.87,0 10.91,-2.56 14.36,-7.31 3.45,-4.74 4.35,-10.33 2.54,-15.91l-48.78 -150.96zm-10.5 108.78l-1.58 -2.11c-6.96,-9.2 -14.11,-18.82 -14.62,-30.14l-10.88 31.2 -2.56 7.32c-5.35,15.33 -7.49,24.96 -7.16,32.28 0.64,14.12 12.41,26.58 26.96,26.12 15.77,-0.5 27.41,-10.5 27.67,-26.75 0.21,-13.14 -7.57,-23.87 -15.31,-34.53 -0.82,-1.13 -1.66,-2.26 -2.52,-3.39zm179.62 -147.23l0 57.54 -2.1 0c0,-10.01 -1.54,-19.23 -4.68,-27.65 -3.13,-8.42 -8.14,-15.16 -14.97,-20.21 -6.83,-5.05 -15.72,-7.58 -26.67,-7.58l-76.61 0 -0.73 -2.1 125.76 0z"></path> <path class="fil1" d="M275.5 0c30.21,0 59.03,6.01 85.33,16.91 27.33,11.31 51.91,27.89 72.47,48.46 20.56,20.56 37.14,45.14 48.46,72.46 10.89,26.3 16.91,55.13 16.91,85.34 0,30.21 -6.02,59.03 -16.91,85.33 -11.32,27.32 -27.9,51.9 -48.46,72.47 -20.56,20.56 -45.14,37.14 -72.47,48.45 -26.3,10.9 -55.12,16.91 -85.33,16.91 -30.21,0 -59.03,-6.01 -85.33,-16.91 -27.33,-11.31 -51.91,-27.89 -72.47,-48.45 -40.38,-40.39 -65.37,-96.18 -65.37,-157.8 0,-30.21 6.02,-59.04 16.91,-85.34 11.32,-27.32 27.9,-51.9 48.46,-72.46 20.56,-20.57 45.14,-37.15 72.47,-48.46 26.3,-10.9 55.12,-16.91 85.33,-16.91zm152.71 70.45c-19.92,-19.92 -43.7,-35.97 -70.11,-46.91 -25.43,-10.53 -53.33,-16.34 -82.6,-16.34 -29.27,0 -57.17,5.81 -82.6,16.34 -26.41,10.94 -50.19,26.99 -70.11,46.91 -19.92,19.92 -35.97,43.71 -46.91,70.12 -10.53,25.43 -16.35,53.33 -16.35,82.6 0,29.27 5.82,57.17 16.35,82.6 10.94,26.41 26.98,50.19 46.91,70.11 19.92,19.92 43.7,35.97 70.11,46.91 25.43,10.53 53.33,16.35 82.6,16.35 29.27,0 57.17,-5.82 82.6,-16.35 26.41,-10.94 50.19,-26.99 70.11,-46.91 19.93,-19.92 35.97,-43.7 46.91,-70.11 10.53,-25.43 16.35,-53.33 16.35,-82.6 0,-29.27 -5.82,-57.17 -16.35,-82.6 -10.94,-26.41 -26.99,-50.2 -46.91,-70.12z"></path> </g> </g> </svg>
