<?xml version="1.0" encoding="UTF-8"?>
<svg xmlns="http://www.w3.org/2000/svg" xmlns:xlink="http://www.w3.org/1999/xlink" xmlns:xodm="http://www.corel.com/coreldraw/odm/2003" xml:space="preserve" width="46.6596mm" height="54.6975mm" version="1.1" style="shape-rendering:geometricPrecision; text-rendering:geometricPrecision; image-rendering:optimizeQuality; fill-rule:evenodd; clip-rule:evenodd" viewBox="0 0 4665.96 5469.75"> <defs> <style type="text/css"> .fil2 {fill:#3895A3} .fil3 {fill:white;fill-rule:nonzero} .fil1 {fill:#FF6600;fill-rule:nonzero} .fil0 {fill:white;fill-rule:nonzero} </style> </defs> <g id="Layer_x0020_1"> <metadata id="CorelCorpID_0Corel-Layer"></metadata> <g id="_105553277237536"> <path class="fil0" d="M455.03 4660.81c-5.63,-25.11 -14.98,-47.75 -28.27,-67.99 -13.3,-20.19 -30.53,-36.32 -51.52,-48.09 -20.96,-11.81 -45.85,-17.61 -74.68,-17.61l-73.06 0 0 -13.5 73.06 0c28.83,0 53.72,-5.42 74.68,-16.26 20.99,-10.88 38.22,-25.86 51.52,-44.96 13.29,-19.09 22.64,-41.19 28.27,-66.29l14.06 0 0 274.7 -14.06 0zm171.33 -564l0 230.33 -14.06 0c-5.59,-40.09 -17.02,-76.58 -34.25,-109.39 -17.23,-32.76 -40.47,-58.76 -69.68,-78.06 -29.21,-19.3 -64.76,-28.83 -106.72,-28.83l-126.4 0 0 814.53 112.35 0 0 14.05 -387.6 0 0 -14.05 101.13 0 0 -814.53 -101.13 0 0 -14.05 626.36 0zm119.08 576.36l0 -14.06 334.81 0 0 14.06 -334.81 0zm264.62 -592.66l293.2 844.88 83.73 0 0 14.05 -384.8 0 0 -14.05 98.84 0 -210.64 -650.49 -228.09 650.49 125.85 0 0 14.05 -247.18 0 0 -14.05 105.07 0 297.73 -844.88 66.29 0zm624.62 430.31l0 -8.97 162.94 0c35.94,0 66.08,-6.94 90.25,-20.79 24.13,-13.88 42.29,-35.22 54.48,-64.05 12.15,-28.83 18.17,-65.53 18.17,-110.1 0,-44.58 -6.02,-81.45 -18.17,-110.49 -12.19,-29 -30.35,-50.55 -54.48,-64.6 -24.17,-14.06 -54.31,-20.96 -90.25,-20.96l-365.16 0 0 -14.05 393.23 0c62.18,0 116.83,7.32 164.03,22.1 47.21,14.77 84.08,37.63 110.66,68.53 26.59,30.91 39.88,70.78 39.88,119.47 0,48.68 -12.36,88.01 -37.25,117.98 -24.89,29.93 -60.88,51.69 -107.87,65.32 -46.99,13.67 -103.54,20.61 -169.45,20.61l-191.01 0zm-202.22 428.62l0 -14.05 398.86 0 0 14.05 -398.86 0zm112.35 -7.32l0 -827.44 174.15 0 0 827.44 -174.15 0zm556.12 15.75c-38.18,0 -68.15,-5.97 -90.04,-18.33 -21.93,-12.2 -38.01,-28.49 -48.3,-49.07 -10.33,-20.61 -17.06,-43.64 -20.07,-69.13 -3,-25.44 -4.48,-51.85 -4.65,-79.2 -0.21,-27.31 -1.32,-53.93 -3.39,-79.59 -2.07,-25.65 -7.28,-48.68 -15.54,-69.25 -8.25,-20.62 -21.92,-37.09 -41.02,-49.28 -19.09,-12.15 -45.88,-18.16 -80.3,-18.16l-162.94 0 0 -7.83 252.81 0c52.03,0 93.43,7.49 123.95,22.65 30.52,15.15 53.17,35.18 68.16,60.11 14.98,24.89 24.89,52.24 29.59,81.83 4.7,29.59 7.11,59.18 7.32,88.94 0.17,29.76 0.72,57.11 1.65,82 0.93,24.93 4.87,44.96 11.98,59.94 7.11,14.99 20.45,22.48 39.92,22.48 11.98,0 23.2,-1.31 33.49,-3.94 10.33,-2.62 19.3,-5.8 27.22,-9.56l5.04 12.91c-9.02,4.87 -25.49,9.73 -49.49,14.98 -23.96,5.08 -52.41,7.5 -85.39,7.5zm302.3 -851.06l0 828.58 129.75 0 0 14.05 -257.85 0 0 -14.05 113.5 0 0 -814.53 -113.5 0 0 -14.05 128.1 0zm689.81 0l0 14.05 -118.53 0 0 839.8 -18.54 0 -562.86 -853.85 207.26 0 360.09 556.12 0 -542.07 -128.06 0 0 -14.05 260.64 0zm249.98 576.36l0 -14.06 334.81 0 0 14.06 -334.81 0zm264.62 -592.66l293.2 844.88 83.73 0 0 14.05 -384.8 0 0 -14.05 98.84 0 -210.64 -650.49 -228.09 650.49 125.85 0 0 14.05 -247.18 0 0 -14.05 105.07 0 297.73 -844.88 66.29 0zm419.05 858.93l0 -14.05 432.56 -814.53 -167.38 0c-51.31,0 -92.16,7.66 -122.69,23.2 -30.52,15.54 -53.72,37.85 -69.63,66.84 -15.92,29.04 -27.73,63.67 -35.22,103.76l-14.06 0 0 -207.85 605.61 0 0 14.05 -432.55 814.53 201.08 0c51.31,0 92.33,-8.22 122.85,-24.51 30.52,-16.3 53.72,-40.47 69.64,-72.48 15.91,-32 27.55,-71.71 35.05,-119.29l14.01 0 0 230.33 -639.27 0z"></path> <path class="fil1" d="M2087.59 5469.75c-12.05,0 -23.41,-0.95 -34.01,-2.85 -10.69,-1.92 -20.47,-4.83 -29.26,-8.7 -8.8,-3.85 -16.86,-8.41 -24.15,-13.67 -4.42,-3.19 -8.58,-6.65 -12.45,-10.38l-23.21 33.21 -18.42 0 0 -126.29 21.81 0.01 1.35 6.84c1.4,7.14 3.24,14.05 5.44,20.72 2.11,6.49 4.7,12.83 7.66,18.97 2.97,6.05 6.3,11.62 9.97,16.66 3.68,5.04 7.84,9.76 12.47,14.14 4.52,4.27 9.52,8.09 14.99,11.46 5.53,3.4 11.5,6.31 17.85,8.7 6.41,2.42 13.41,4.28 20.93,5.5 7.47,1.21 15.66,1.85 24.51,1.85 8.97,-0.01 17.26,-0.77 24.78,-2.28 7.54,-1.53 14.48,-3.8 20.77,-6.77 6.18,-2.89 11.69,-6.49 16.49,-10.77 4.79,-4.26 8.86,-9.18 12.2,-14.69 3.34,-5.51 5.87,-11.75 7.57,-18.66 1.72,-6.98 2.59,-14.74 2.59,-23.25 0,-7.08 -0.83,-13.52 -2.5,-19.26 -1.64,-5.66 -4.12,-10.81 -7.41,-15.38 -3.48,-4.84 -7.6,-9.44 -12.3,-13.75 -4.67,-4.31 -10.01,-8.34 -15.94,-12.06 -6.17,-3.88 -12.66,-7.63 -19.44,-11.21 -6.84,-3.61 -13.94,-7.08 -21.26,-10.33l-22.95 -10.39 -22.99 -10.92c-7.93,-3.83 -15.5,-7.93 -22.63,-12.3 -7.2,-4.4 -14.13,-9.16 -20.74,-14.26 -6.74,-5.18 -12.88,-10.97 -18.35,-17.28 -5.5,-6.35 -10.34,-13.22 -14.45,-20.56 -4.24,-7.56 -7.45,-15.96 -9.57,-25.13 -2.09,-9.02 -3.14,-18.72 -3.14,-29.1 0,-21.45 5.53,-40.25 16.58,-56.38 5.46,-7.99 11.81,-15.12 19.03,-21.34 7.25,-6.24 15.38,-11.58 24.37,-16.01 9.01,-4.4 18.45,-7.71 28.28,-9.91 9.9,-2.19 20.12,-3.32 30.63,-3.32 9.29,0.01 18.29,0.74 26.96,2.23 8.64,1.47 16.89,3.7 24.68,6.68 7.85,2.99 15.24,6.89 22.12,11.61 4.18,2.85 8.15,6.01 11.9,9.47l23.03 -29.99 18.2 0 0 126.32 -22.12 0 -1.11 -7.21c-1.71,-11.16 -4.13,-21.27 -7.25,-30.26 -3.09,-8.85 -6.92,-16.79 -11.5,-23.78 -4.46,-6.84 -9.55,-12.8 -15.21,-17.9 -5.59,-5.06 -11.74,-9.23 -18.38,-12.49 -6.7,-3.28 -13.95,-5.79 -21.68,-7.47 -7.71,-1.68 -15.92,-2.53 -24.56,-2.53 -11.9,0 -22.21,1.39 -30.94,4.17 -8.38,2.67 -15.41,6.66 -21.04,11.95 -5.65,5.31 -9.9,11.48 -12.71,18.46 -2.86,7.1 -4.3,15.21 -4.3,24.26 0,6.17 0.81,11.79 2.41,16.82 1.58,5.01 4,9.58 7.14,13.67 3.43,4.45 7.44,8.65 11.96,12.57 4.61,3.98 9.82,7.71 15.59,11.18 5.94,3.56 12.32,7.09 19.1,10.58 6.83,3.51 13.86,6.89 21.02,10.08 7.57,3.37 15.12,6.87 22.62,10.47 7.82,3.75 15.4,7.53 22.69,11.28 7.67,3.96 15.1,8.32 22.19,13.03 7.06,4.7 13.88,9.83 20.43,15.34 6.7,5.64 12.73,11.83 18.02,18.5 5.32,6.69 10.01,14 14.06,21.88 4.09,8 7.16,16.88 9.2,26.61 2,9.6 3.01,19.94 3.01,31 0,12.13 -1.35,23.6 -4,34.34 -2.68,10.83 -6.73,20.88 -12.09,30.1 -5.36,9.28 -11.9,17.55 -19.55,24.76 -7.61,7.18 -16.36,13.32 -26.17,18.36 -9.83,5.06 -20.52,8.85 -32.02,11.33 -11.44,2.48 -23.72,3.72 -36.8,3.72zm-1220.51 -134.38l-127.32 0 -36 103.07 56.41 0 0 23.61 -133.99 0 -0.01 -23.61 52.24 0 140.26 -400.23 18.87 0 138.64 400.23 42.65 0 0.01 23.61 -171.29 0 0 -23.61 52.77 0 -33.24 -103.07zm-119.09 -23.57l111.49 0 -53.52 -165.94 -57.97 165.94zm381.91 -242.28l-58.25 0 -0.01 -23.56 184.11 0c13.79,0 26.76,0.93 38.89,2.77 12.12,1.85 23.51,4.69 34.09,8.49 10.73,3.87 20.27,8.77 28.61,14.69 8.45,6.01 15.71,13.09 21.72,21.2 6.09,8.18 10.68,17.55 13.71,28 3,10.33 4.51,21.65 4.51,33.88 0,24.86 -5.71,45.05 -17.11,60.69 -5.71,7.85 -12.73,14.64 -21.02,20.32 -8.16,5.59 -17.59,10.14 -28.25,13.62l-6.38 1.94 3.9 1.71c8.27,3.87 15.52,8.38 21.72,13.51 6.36,5.31 11.67,11.25 15.93,17.83 4.14,6.39 7.62,13.13 10.37,20.12 2.72,6.9 4.78,14.18 6.17,21.81 1.33,7.17 2.34,14.42 3.04,21.63 0.7,7.28 1.11,14.66 1.21,22.04l0.37 19.73 0.67 18.6c0.26,5.46 0.84,10.37 1.7,14.66 0.84,4.08 1.96,7.63 3.33,10.59 0.88,1.94 2.09,3.36 3.58,4.22 1.76,0.99 4.15,1.51 7.19,1.51 2.54,0 4.88,-0.13 6.99,-0.37 2.34,-0.27 4.48,-0.65 6.37,-1.1l5.91 -1.77 5.11 -2.04 8.17 -3.84 8.38 21.45 -6.6 3.58c-2.57,1.4 -5.72,2.67 -9.42,3.82 -3.44,1.08 -7.43,2.06 -11.9,2.91 -4.53,0.85 -9.35,1.51 -14.39,1.93 -5.14,0.41 -10.56,0.63 -16.18,0.63 -8.32,0 -15.83,-0.8 -22.5,-2.37 -7.01,-1.66 -13.11,-4.19 -18.22,-7.6 -4.99,-3.34 -9.35,-7.25 -13,-11.73 -3.69,-4.52 -6.7,-9.61 -8.94,-15.18 -2.08,-5.15 -3.8,-10.72 -5.12,-16.63 -1.32,-5.95 -2.24,-12.07 -2.73,-18.34 -0.48,-5.68 -0.88,-11.88 -1.21,-18.5 -0.28,-6.09 -0.49,-12.47 -0.59,-19.11 -0.07,-6.06 -0.3,-12.23 -0.65,-18.46 -0.34,-6.06 -0.84,-12.08 -1.44,-17.98 -0.57,-5.52 -1.51,-10.83 -2.78,-15.88 -1.27,-4.95 -2.89,-9.64 -4.82,-14.03 -1.76,-4.08 -4.06,-7.69 -6.82,-10.83 -2.81,-3.17 -6.2,-5.96 -10.16,-8.37 -3.81,-2.32 -8.5,-4.11 -14,-5.31 -5.72,-1.29 -12.41,-1.93 -20.09,-1.93l-55.41 0 0 175.97 58.57 0 0 23.61 -184.58 0 0 -23.61 58.25 0 0 -368.92zm67.76 169.34l58.09 0c7.79,0 14.99,-0.85 21.52,-2.5 6.42,-1.63 12.24,-4.08 17.4,-7.26 5.19,-3.22 9.79,-7.16 13.74,-11.77 3.97,-4.64 7.37,-10.06 10.14,-16.22 2.83,-6.26 4.97,-13.2 6.39,-20.77 1.43,-7.63 2.14,-16.08 2.14,-25.35 0,-9.29 -0.72,-17.84 -2.16,-25.6 -1.4,-7.61 -3.55,-14.7 -6.41,-21.17 -2.75,-6.33 -6.15,-11.9 -10.17,-16.7 -3.96,-4.73 -8.56,-8.76 -13.74,-12.03 -5.18,-3.31 -10.98,-5.78 -17.34,-7.44 -6.46,-1.69 -13.65,-2.53 -21.51,-2.53l-58.09 0 0 169.34zm329.56 214.72l0 -15.14 58.53 0 0 -368.91 -44.75 -0.01c-7.39,0 -13.97,0.61 -19.73,1.82 -5.53,1.16 -10.42,2.92 -14.62,5.23 -4.19,2.27 -7.93,5.07 -11.16,8.33 -3.21,3.24 -5.99,7.03 -8.33,11.32 -2.49,4.5 -4.59,9.48 -6.32,14.91 -1.72,5.42 -3.12,11.46 -4.13,18.09 -1.04,6.86 -1.83,14 -2.34,21.34 -0.5,7.3 -0.76,15.18 -0.76,23.59l0 8.46 -23.56 0.01 0 -136.66 338.91 0 0.01 136.66 -23.61 -0.01 0 -8.46c0,-8.47 -0.25,-16.42 -0.76,-23.77 -0.52,-7.55 -1.29,-14.62 -2.29,-21.13 -1.05,-6.64 -2.43,-12.67 -4.14,-18.06 -1.71,-5.37 -3.86,-10.37 -6.36,-14.93 -2.34,-4.25 -5.18,-8.05 -8.48,-11.32 -3.24,-3.23 -7.02,-6.02 -11.3,-8.34 -4.21,-2.32 -9.13,-4.08 -14.69,-5.26 -5.7,-1.21 -12.15,-1.82 -19.32,-1.82l-44.79 0 0.01 368.92 58.56 -0.01 0 23.62 -184.58 0 0 -8.47zm2334.03 -9.27c10.86,0 20.58,-1.31 29.09,-3.91 8.33,-2.53 15.67,-6.36 21.95,-11.41 6.57,-5.27 12.39,-11.41 17.43,-18.4 5.07,-7.05 9.44,-15.07 13.04,-24.03 3.71,-9.25 6.84,-19.01 9.34,-29.23 2.5,-10.25 4.45,-21.18 5.79,-32.71 1.37,-11.76 2.38,-23.47 3.04,-35.09 0.64,-11.45 0.96,-23.3 0.95,-35.53 0.01,-12.11 -0.38,-23.98 -1.17,-35.56 -0.78,-11.66 -1.98,-23.31 -3.59,-34.86 -1.59,-11.43 -3.77,-22.36 -6.48,-32.68 -2.73,-10.35 -6.03,-20.15 -9.88,-29.4 -3.74,-8.96 -8.21,-17.03 -13.38,-24.17 -5.1,-7.04 -10.9,-13.19 -17.37,-18.4 -6.25,-5.04 -13.41,-8.85 -21.42,-11.37 -8.16,-2.58 -17.29,-3.87 -27.34,-3.87 -10.04,0 -19.15,1.29 -27.31,3.87 -8.01,2.53 -15.17,6.34 -21.42,11.37 -6.46,5.2 -12.26,11.35 -17.36,18.39 -5.22,7.18 -9.73,15.28 -13.49,24.2 -3.86,9.28 -7.19,19.07 -9.91,29.31 -2.75,10.36 -4.93,21.3 -6.54,32.75 -1.61,11.64 -2.84,23.36 -3.65,35.1 -0.78,11.5 -1.2,23.29 -1.2,35.32 0,12.23 0.34,24.15 1.03,35.7 0.69,11.53 1.75,23.16 3.17,34.89 1.39,11.56 3.34,22.49 5.85,32.74 2.51,10.28 5.61,20.06 9.28,29.26 3.5,8.84 7.86,16.83 12.98,23.91 5.05,7.02 10.95,13.16 17.62,18.45 6.39,5.07 13.77,8.9 22.1,11.45 8.48,2.6 18.11,3.91 28.85,3.91zm0 23.05c-14.03,0 -27.4,-1.38 -40.03,-4.13 -12.66,-2.79 -24.64,-7 -35.87,-12.65 -11.11,-5.58 -21.38,-12.24 -30.78,-19.94 -9.39,-7.72 -17.95,-16.52 -25.65,-26.42 -7.62,-9.75 -14.34,-20.38 -20.14,-31.8 -5.74,-11.24 -10.59,-23.38 -14.54,-36.32 -3.91,-12.85 -6.86,-26.11 -8.8,-39.72 -1.95,-13.73 -2.94,-27.86 -2.94,-42.38 0,-14.57 1.06,-28.73 3.13,-42.44 2.1,-13.74 5.25,-27.07 9.44,-39.94 4.17,-12.76 9.26,-24.84 15.22,-36.17 5.98,-11.36 12.87,-21.96 20.63,-31.75 7.8,-9.83 16.43,-18.66 25.89,-26.42 9.47,-7.76 19.7,-14.42 30.65,-19.94 11.12,-5.56 22.85,-9.76 35.17,-12.54 12.36,-2.78 25.25,-4.19 38.62,-4.19 13.39,0 26.29,1.4 38.64,4.19 12.34,2.78 24.05,6.98 35.06,12.54 10.92,5.52 21.14,12.19 30.59,19.94 9.45,7.75 18.14,16.57 26,26.42 7.79,9.78 14.69,20.37 20.69,31.75 5.95,11.3 11.02,23.4 15.15,36.2 4.14,12.84 7.25,26.14 9.3,39.83 2.07,13.73 3.1,27.93 3.11,42.52 0,14.5 -0.98,28.61 -2.91,42.35 -1.93,13.64 -4.85,26.92 -8.75,39.75 -3.92,12.86 -8.76,24.97 -14.48,36.24 -5.76,11.38 -12.49,22.03 -20.08,31.86 -7.66,9.89 -16.21,18.71 -25.62,26.44 -9.38,7.7 -19.65,14.36 -30.77,19.93 -11.22,5.66 -23.21,9.87 -35.87,12.65 -12.63,2.76 -25.99,4.14 -40.06,4.14zm-391.89 -13.78l0 -15.14 58.24 0 0 -368.92 -58.24 0 0 -23.56 189.88 0 0 23.56 -63.87 0 0 368.92 63.87 0 0 23.61 -189.89 0 0.01 -8.47zm-265.2 -15.14l41.87 0c11.57,0 22.12,-1.26 31.63,-3.74 9.42,-2.48 17.94,-6.18 25.49,-11.09 7.7,-4.98 14.68,-10.9 20.89,-17.66 6.21,-6.75 11.72,-14.5 16.5,-23.15 4.85,-8.81 9.03,-18.16 12.47,-27.99 3.47,-9.9 6.31,-20.46 8.45,-31.62 2.17,-11.41 3.82,-22.83 4.89,-34.23 1.06,-11.31 1.6,-22.97 1.6,-34.96 0,-11.93 -0.6,-23.6 -1.8,-34.96 -1.19,-11.34 -3.03,-22.72 -5.47,-34.03 -2.37,-11.15 -5.43,-21.74 -9.11,-31.75 -3.7,-10.05 -8.01,-19.44 -12.91,-28.12 -4.79,-8.48 -10.38,-16.17 -16.71,-23.02 -6.29,-6.82 -13.29,-12.76 -20.92,-17.77 -7.59,-4.93 -15.9,-8.64 -24.9,-11.1 -9.09,-2.48 -19.13,-3.73 -30.1,-3.73l-41.87 0 0 368.92zm41.87 -392.48c20.46,0 39.6,2.27 57.35,6.79 17.84,4.55 34.34,11.42 49.41,20.61 14.96,9.13 28.26,19.99 39.83,32.47 11.6,12.56 21.46,26.7 29.52,42.38 8.07,15.66 14.13,32.39 18.16,50.1 4.03,17.69 6.03,36.28 6.02,55.69 0,14.63 -1.19,28.79 -3.59,42.45 -2.38,13.58 -6.02,26.73 -10.89,39.41 -4.88,12.69 -10.75,24.52 -17.59,35.49 -6.88,11.06 -14.81,21.35 -23.7,30.81 -8.87,9.42 -18.64,17.85 -29.27,25.21 -10.54,7.34 -21.97,13.65 -34.25,18.89 -12.25,5.24 -25.18,9.2 -38.7,11.83 -13.52,2.63 -27.62,3.96 -42.3,3.96l-157.26 0 0 -23.61 47.63 0 0 -368.92 -47.63 0 0 -23.56 157.26 0zm-211.12 8.47l0 15.09 -51.38 0 0 261.65c0.01,45.93 -10.31,80.49 -30.89,103.55 -10.58,11.8 -24.19,20.65 -40.85,26.48 -16.24,5.7 -35.35,8.55 -57.26,8.55 -23.72,0 -44.43,-2.68 -62.13,-8.04 -18.09,-5.44 -32.99,-13.77 -44.65,-24.89 -11.71,-11.19 -20.51,-25.79 -26.29,-43.76 -5.63,-17.46 -8.46,-38.1 -8.46,-61.89l0 -261.65 -47.63 0 0 -23.56 168.61 0 0 23.56 -53.22 0 0 256.34c0,8.57 0.32,16.8 0.94,24.63 0.65,8.21 1.6,16.06 2.83,23.48 1.19,7.23 2.9,14.03 5.06,20.37 2.11,6.17 4.73,11.98 7.81,17.35 2.91,5.13 6.44,9.7 10.57,13.71 4.13,3.99 8.91,7.47 14.26,10.36 5.37,2.89 11.59,5.09 18.61,6.56 7.17,1.5 15.29,2.27 24.31,2.27 10.81,0 20.65,-1.01 29.47,-3.01 8.68,-1.97 16.55,-4.94 23.53,-8.87 6.84,-3.8 12.83,-8.66 17.96,-14.55 5.22,-5.96 9.61,-13.03 13.13,-21.14 3.62,-8.34 6.36,-17.95 8.2,-28.8 1.83,-10.97 2.76,-23.33 2.76,-37.05l0 -261.65 -49.46 0 0 -23.56 124.16 0 0.01 8.47zm-685.66 399.15l0.01 -15.14 58.51 0.01 0 -368.93 -44.74 0c-7.38,0 -13.97,0.62 -19.73,1.81 -5.54,1.18 -10.43,2.94 -14.61,5.24 -4.21,2.27 -7.94,5.07 -11.18,8.34 -3.23,3.26 -6.03,7.04 -8.32,11.28 -2.49,4.53 -4.59,9.51 -6.32,14.94 -1.72,5.42 -3.12,11.47 -4.14,18.09 -1.03,6.86 -1.82,14 -2.33,21.34 -0.51,7.3 -0.76,15.18 -0.76,23.59l0 8.47 -23.55 0 -0.01 -136.66 338.92 0 0 136.66 -23.61 0 0 -8.47c0,-8.47 -0.25,-16.42 -0.76,-23.76 -0.52,-7.55 -1.29,-14.63 -2.29,-21.14 -1.05,-6.64 -2.43,-12.67 -4.14,-18.05 -1.71,-5.38 -3.86,-10.38 -6.37,-14.94 -2.33,-4.26 -5.17,-8.05 -8.47,-11.32 -3.24,-3.23 -7.02,-6.02 -11.3,-8.34 -4.21,-2.32 -9.13,-4.08 -14.69,-5.26 -5.71,-1.21 -12.15,-1.82 -19.32,-1.81l-44.78 -0.01 -0.01 368.92 58.56 0 0 23.61 -184.57 0 0 -8.47z"></path> <path class="fil2" d="M2332.98 173.51c947.89,0 1716.31,768.42 1716.31,1716.31 0,297.76 -75.87,577.8 -209.27,821.89 -117.87,196.71 -262.75,338.11 -418.46,435.79 -460.94,286.68 -1200.9,196.06 -1420.03,-313.05 -22.54,-52.4 -102.75,-17.03 -79.33,34.85 251.16,556.6 1055.55,614.83 1520.04,311.05 29.38,-18.42 58.38,-38.37 86.9,-59.88 -309.11,300.52 -730.99,485.65 -1196.16,485.65 -947.89,0 -1716.31,-768.42 -1716.31,-1716.3 0,-947.89 768.42,-1716.31 1716.31,-1716.31z"></path> <path class="fil3" d="M2672.1 1833.2l73.87 0c68.93,0 126.39,-8.32 171.95,-24.56 45.55,-16.25 79.63,-41.21 102.21,-74.88 22.58,-33.68 33.68,-76.87 33.68,-129.95l19.01 0 0 487.3 -19.01 0c0,-53.08 -11.1,-97.45 -33.68,-133.11 -22.58,-35.66 -56.66,-62.6 -102.21,-80.83 -45.56,-18.22 -103.02,-27.33 -171.95,-27.33l-68.1 0 -5.77 -16.64zm-674.85 -562.18l-194.94 558.69c-47.33,135.67 37.55,242.75 114.66,344.6l13.42 17.84c4.58,6.13 9.11,12.24 13.54,18.35 67.23,92.61 134.87,185.8 132.98,303.07 -2.85,176 -140.51,249.67 -300.74,250.27l-539.6 0 0 -17.83c106.66,0 284.93,-169.27 346.2,-344.74l517.92 -1483.26 555.77 1603.79c46.26,133.52 107.47,224.21 251.22,224.21l0 17.83 -689.36 0 0 -17.83 48.89 0c49.66,0 92.37,-21.75 121.6,-61.9 29.22,-40.14 36.78,-87.48 21.51,-134.73l-413.07 -1278.36zm-88.91 921.13l-13.46 -17.84c-58.9,-77.96 -119.47,-159.43 -123.74,-255.26l-92.18 264.18 -21.66 62.06c-45.28,129.79 -63.43,211.35 -60.63,273.27 5.41,119.59 105.09,225.09 228.29,221.22 133.59,-4.19 232.11,-88.89 234.33,-226.5 1.8,-111.32 -64.13,-202.14 -129.66,-292.41 -6.93,-9.55 -14.07,-19.11 -21.29,-28.72zm1521.05 -1246.8l0 487.31 -17.82 0c0,-84.79 -13.08,-162.84 -39.62,-234.15 -26.55,-71.31 -68.94,-128.36 -126.79,-171.15 -57.84,-42.79 -133.11,-64.18 -225.82,-64.18l-648.74 0 -6.17 -17.83 1064.96 0z"></path> <path class="fil1" d="M2332.98 0c255.83,0 499.91,50.92 722.62,143.17 231.37,95.84 439.51,236.21 613.65,410.36 174.15,174.14 314.52,382.29 410.36,613.66 92.25,222.71 143.17,466.81 143.17,722.64 0,255.82 -50.92,499.9 -143.17,722.61 -95.83,231.37 -236.21,439.52 -410.35,613.66 -174.14,174.14 -382.29,314.51 -613.66,410.34 -222.71,92.25 -466.79,143.17 -722.62,143.17 -255.83,0 -499.91,-50.92 -722.62,-143.17 -231.37,-95.83 -439.52,-236.2 -613.66,-410.34 -341.98,-341.98 -553.52,-814.44 -553.52,-1336.27 0,-255.83 50.92,-499.93 143.17,-722.64 95.84,-231.37 236.21,-439.52 410.36,-613.66 174.14,-174.15 382.28,-314.52 613.65,-410.36 222.71,-92.25 466.79,-143.17 722.62,-143.17zm1293.2 596.59c-168.7,-168.7 -370.08,-304.57 -593.74,-397.22 -215.35,-89.2 -451.6,-138.44 -699.46,-138.44 -247.86,0 -484.11,49.24 -699.46,138.44 -223.66,92.65 -425.04,228.52 -593.74,397.22 -168.7,168.7 -304.58,370.1 -397.22,593.75 -89.2,215.37 -138.44,451.63 -138.44,699.49 0,247.86 49.24,484.11 138.44,699.46 92.64,223.65 228.51,425.04 397.21,593.74 168.7,168.7 370.09,304.57 593.74,397.21 215.36,89.2 451.61,138.44 699.47,138.44 247.86,0 484.11,-49.24 699.47,-138.44 223.65,-92.64 425.04,-228.51 593.74,-397.21 168.7,-168.7 304.57,-370.09 397.21,-593.74 89.2,-215.35 138.44,-451.6 138.44,-699.46 0,-247.86 -49.24,-484.12 -138.44,-699.49 -92.64,-223.65 -228.52,-425.05 -397.22,-593.75z"></path> </g> </g> </svg>
