<?xml version="1.0" encoding="UTF-8"?>
<svg xmlns="http://www.w3.org/2000/svg" xmlns:xlink="http://www.w3.org/1999/xlink" xmlns:xodm="http://www.corel.com/coreldraw/odm/2003" xml:space="preserve" width="8.7207mm" height="8.7207mm" version="1.1" style="shape-rendering:geometricPrecision; text-rendering:geometricPrecision; image-rendering:optimizeQuality; fill-rule:evenodd; clip-rule:evenodd" viewBox="0 0 118.31 118.31"> <defs> <style type="text/css"> .fil0 {fill:white;fill-rule:nonzero} </style> </defs> <g id="Layer_x0020_1"> <metadata id="CorelCorpID_0Corel-Layer"></metadata> <path class="fil0" d="M59.15 0c16.33,0 31.13,6.62 41.83,17.33 10.7,10.7 17.33,25.5 17.33,41.83 0,16.33 -6.62,31.12 -17.33,41.83 -10.7,10.7 -25.5,17.33 -41.83,17.33 -16.33,0 -31.12,-6.62 -41.83,-17.33 -10.7,-10.7 -17.33,-25.5 -17.33,-41.83 0,-16.33 6.62,-31.13 17.33,-41.83 10.7,-10.7 25.5,-17.33 41.83,-17.33zm22.42 38.57l-45.1 0c-1.3,0 -2.53,0.24 -3.64,0.68 -1.13,0.45 -2.14,1.1 -2.95,1.9 -0.79,0.92 -1.47,2.01 -1.95,3.19 -0.43,1.06 -0.68,2.19 -0.68,3.31l0 22.62c0,1.23 0.25,2.41 0.67,3.51 0.47,1.24 1.16,2.38 1.96,3.38 0.82,0.75 1.91,1.41 3.08,1.88 1.14,0.45 2.36,0.71 3.51,0.71l45.1 0c1.31,0 2.49,-0.28 3.58,-0.75 1.09,-0.47 2.1,-1.13 3.05,-1.88 0.93,-0.93 1.64,-1.99 2.12,-3.14 0.48,-1.15 0.73,-2.4 0.73,-3.71l0 -22.62c0,-1.19 -0.26,-2.39 -0.74,-3.5 -0.48,-1.09 -1.19,-2.1 -2.11,-2.96 -0.94,-0.81 -1.95,-1.47 -3.03,-1.92 -1.09,-0.45 -2.27,-0.7 -3.59,-0.7zm-33.58 18.74l-17.16 17.16 -0.39 -0.58c-0.3,-0.44 -0.52,-1 -0.67,-1.61 -0.15,-0.61 -0.22,-1.3 -0.22,-2.01l0 -22.62c0,-0.71 0.07,-1.39 0.26,-2.04 0.18,-0.66 0.48,-1.29 0.92,-1.88l0.35 -0.47 17.37 13.59 -0.46 0.46zm10.74 5.07l-25.95 -20.76 1 -0.33c0.42,-0.14 0.87,-0.28 1.31,-0.38 0.47,-0.11 0.95,-0.18 1.38,-0.18l45.1 0c1.01,0 1.85,0.28 2.69,0.56l1 0.33 -26.17 21.05 -0.36 -0.29zm11.38 -5.92l16.83 -13.16 0.36 0.41c0.52,0.59 0.85,1.23 1.06,1.9 0.2,0.66 0.28,1.34 0.28,2.05l0 22.62c0,0.71 -0.07,1.39 -0.22,2.01 -0.15,0.62 -0.37,1.17 -0.67,1.61l-0.39 0.58c-5.91,-5.88 -11.82,-11.75 -17.75,-17.61l0.51 -0.4zm-1.75 2.29l17.32 17.46 -0.65 0.37c-1.01,0.58 -2.17,0.87 -3.46,0.87l-45.1 0c-0.59,0 -1.23,-0.08 -1.82,-0.23 -0.56,-0.15 -1.1,-0.37 -1.53,-0.66l-0.58 -0.38 17.5 -17.78 9.04 6.92 8.91 -6.92 0.36 0.36zm30.19 -38.99c-10.08,-10.08 -24.01,-16.32 -39.39,-16.32 -15.38,0 -29.31,6.24 -39.39,16.32 -10.08,10.08 -16.32,24.01 -16.32,39.39 0,15.38 6.24,29.31 16.32,39.39 10.08,10.08 24.01,16.32 39.39,16.32 15.38,0 29.31,-6.24 39.39,-16.32 10.08,-10.08 16.32,-24.01 16.32,-39.39 0,-15.38 -6.24,-29.31 -16.32,-39.39z"></path> </g> </svg>
