<?xml version="1.0" encoding="UTF-8"?>
<svg xmlns="http://www.w3.org/2000/svg" xmlns:xlink="http://www.w3.org/1999/xlink" xmlns:xodm="http://www.corel.com/coreldraw/odm/2003" xml:space="preserve" width="2575px" height="566px" version="1.1" style="shape-rendering:geometricPrecision; text-rendering:geometricPrecision; image-rendering:optimizeQuality; fill-rule:evenodd; clip-rule:evenodd" viewBox="0 0 2575 566"> <defs> <style type="text/css"> .fil0 {fill:#FF6600} </style> </defs> <g id="Layer_x0020_1"> <metadata id="CorelCorpID_0Corel-Layer"></metadata> <g id="_105553342473888"> <path class="fil0" d="M1057.81 468.06c-13.2,0 -2.21,-16.32 -0.78,-18.78 2.39,-4.11 1.99,-7.12 4.57,-11.44 4.4,-7.39 8.04,-16.98 10.94,-21.06 1.9,-2.68 1.3,-2.29 2.77,-5.22l9.19 -14.82c2.07,-4.07 2.45,-7.25 5.15,-10.85l20.92 -27.09c5.59,-5.77 5.16,-10.31 13.5,-18.5 3.19,-3.14 4.31,-5.33 7.48,-8.53 3.22,-3.24 5.47,-4.49 8.54,-7.46 8.2,-7.92 6.6,-8.16 14.73,-6.27 2.15,8.98 0.47,4.45 -2.26,15.74 -1,4.16 -0.06,9.33 -0.99,14.02 -0.6,3.05 -2.88,7.18 -3.49,11.51 -2.55,18.07 -3.62,11.94 -7.4,23.6 -6.22,19.2 -4.74,6.4 -9.99,20.01 -1.35,3.49 -1.47,2.48 -3,5.01 -1.48,2.44 -3,10.04 -6.5,16.5l-15.14 14.86c-10.65,7.07 -12.12,9.73 -23.06,14.94 -4.86,2.32 -0.05,1.95 -9.55,5.45 -7.23,2.67 -11.62,8.38 -15.63,8.38zm684.09 -162.02c-3.1,0 -7.52,-6.24 -9.96,-8.05 -6.57,-4.84 -13.05,-2.15 -13.05,-5.95 0,-7.97 5,-6.88 9.36,-15.65 1.65,-3.3 2.62,-5.41 4.28,-8.72l3.77 -5.23c0.49,-0.53 1.53,-1.75 1.82,-2.18 2.42,-3.56 1.85,-4.46 5.04,-7.96 4.32,-4.72 1.82,-3.7 4.42,-8.59 2.42,-4.56 2.78,-0.89 5.63,-7.37l14.38 -23.62c2.07,-2.79 4.12,-4.57 5.58,-7.42 4.23,-8.28 2.68,-3.61 5.32,-7.68 2.89,-4.44 6.15,-16.81 13.26,-25.75 7.85,-9.87 9.49,-12.69 14.8,-23.21 3.78,-7.49 6.76,-8.81 11.24,-14.76 7.56,-10.04 0.7,-7.06 9.88,-16.12 10.14,-10.02 15.03,-23.69 26.51,-37.5 1.45,-1.74 9.15,-7.61 12.71,-13.3 4.25,-6.8 5.17,-12.88 9.83,-16.27 2.47,-1.81 7.19,-3.15 7.19,3.3 0,5.71 -5.19,-1.1 -4.99,19.01 0.11,10.21 -2.39,14.09 -2.94,22.06 -0.97,13.93 -1.45,8.71 -3.37,20.63 -0.4,2.47 -0.84,8.14 -1.44,10.57 -1.94,7.84 -3.67,6.62 -5.44,19.56 -0.32,2.3 -0.72,7.99 -1.42,10.58l-10.76 39.24c-1.24,3.67 -2.62,5.79 -3.39,8.62l-7.08 29.92c-0.81,6.25 -0.02,4.66 -3.41,8.6 -3.35,3.88 -2.15,4.1 -4.14,8.85 -3.29,7.84 -16.28,12.71 -20.61,15.4 -2.92,1.81 -4.11,3.99 -6.85,6.15 -2.65,2.1 -4.23,2.64 -6.9,5.1 -3.05,2.8 -3.44,3.17 -7.41,4.59 -6.16,2.21 -3.34,1.18 -7.72,4.29 -2.56,1.81 -3.04,0.99 -5.64,3.35 -7.26,6.58 -4.72,1.31 -10.68,5.33 -5.99,4.03 -21.35,10.18 -27.82,10.18zm-231.04 150.02c0,-2.72 -4.59,-4.93 -6.91,-4.98 -2.68,-0.06 -6.31,0.98 -11.09,0.98l-5.95 12.05c-9.24,14.74 0.62,6.49 -20.34,15.66 -6.23,2.73 -6.23,3.71 -14.7,4.3 -8.69,0.61 -36.57,15.99 -59.02,15.99 -6.69,0 -14.88,-5.52 -19.44,-8.56 -4.56,-3.04 -4.28,-3.22 -5.33,-8.67 -1.37,-7.09 -2.08,-6.27 -4.08,-10.93 -1.52,-3.53 -1.33,-17.03 -14.15,-27.85 -2.83,-2.39 -7.01,-4.49 -7.01,-8.99 0,-7.26 5.74,-6.87 8.62,-11.39 4.36,-6.82 5.4,-12.59 11.24,-19.77l14.15 -17.85c2.88,-4.39 5.32,-7.94 9.38,-11.62 2.08,-1.88 0.22,0.34 2.43,-2.57l6.77 -9.23c2.8,-4.09 4.71,-9.19 7.57,-13.43 2.64,-3.9 2.35,-2.09 5,-5.01l8.68 -12.32c1.77,-3.89 1.12,-4.23 4.17,-6.83 14.55,-12.43 18.44,-26.6 21.47,-30.54l1.45 -1.55c0.14,-0.15 0.36,-0.35 0.49,-0.51l2.46 -4.54c2.91,-6.33 9.88,-11.4 14.98,-16.02l5.41 -5.59c5.16,-5.98 6.7,-15.33 -0.89,-20.62 -3.74,-2.6 -8.44,-2.64 -13.36,-2.64 -5.9,0 -6.9,6.5 -22.82,8.19 -13.3,1.41 -26.66,2.85 -39.74,0.36 -4.55,-0.87 -7.93,-0.12 -12.35,-0.65 -3.06,-0.38 -6.32,-1.74 -10.52,-2.48 -26.88,-4.77 -12.45,2.75 -30.46,24.71 -3.83,4.66 -3.53,7.96 -6.52,11.48 -0.14,0.16 -0.36,0.35 -0.5,0.51l-1.37 1.63c-6.67,9.73 -5.62,5.43 -9.74,13.26 -2.04,3.87 -3.86,5.77 -5.95,9.05 -3.83,6 -8.52,12.11 -11.2,18.81 -2.34,5.84 -2.22,4.57 -6.11,8.89 -2.65,2.94 -3.37,6.02 -5.54,9.46 -1.65,2.62 -4.08,6.94 -5.95,9.05 -5.67,6.39 -10.1,14.95 -15.51,21.49 -2.67,3.22 -2.96,7.63 -5.72,10.29 -6.46,6.22 -9.62,15.94 -15.27,22.73 -3.12,3.75 -2.62,5.63 -5.14,9.86 -2.39,4.01 -4.31,5.12 -6.63,8.37 -4.32,6.07 -9.93,10.34 -13.32,16.69 -2.45,4.58 -6.89,9.04 -10.68,12.32 -2.93,2.54 -1.19,1.23 -3.45,4.55 -1.37,2 -1.75,1.94 -3.11,3.9l-9.83 13.16c-4.25,5.89 -11.68,8.09 -17.73,12.29 -3.66,2.55 -5.27,4.09 -10.51,1.82 -6.24,-2.71 -17.37,-22.87 -17.37,-28.71 0,-4.99 4.76,-15.59 5,-24.01 0.18,-6.38 2.94,-9.73 4.88,-15.11 1.78,-4.93 2.62,-9.98 5.18,-14.82 1.55,-2.93 1.87,-2.47 3.32,-6.69 2.32,-6.73 3.51,-6.85 7.05,-11.95 5.57,-8.05 7.01,-18.99 13.79,-26.21 4.39,-4.67 5.75,-4.65 9.12,-10.89 1.89,-3.51 1.84,-2.55 3.82,-5.18l11.18 -18.83c7.34,-16.94 -12.55,-18.15 -15.93,-13.97 -1.58,1.96 -1.71,3.95 -3.67,6.37 -1.43,1.77 -3.3,3.34 -5,5.01 -5.06,4.96 -12.58,16.9 -16.4,23.6 -1.89,3.31 -2.58,2.92 -4.47,5.53 -2.66,3.65 -0.56,3.99 -4.87,5.14 -0.5,-5.98 -0.48,-9.85 2.47,-15.54 6.1,-11.8 2.65,-13.99 5.49,-22.51 3.63,-10.87 3.69,-15.69 -1.11,-26.81 -2.66,-6.15 -7.97,-8.15 -14.85,-8.15 -12.59,0 -20.63,8.29 -27.24,14.77 -1.77,1.74 -4.04,3.15 -5.29,4.7 -2.32,2.89 -1.04,3.85 -4.97,6.03 -10.63,5.9 -1.22,0.52 -11.04,9.97 -2.12,2.04 -2.28,3.31 -4.15,5.85 -2.09,2.83 -3.48,3.43 -5.11,5.89 -3.99,5.98 -2.23,5.03 -8.37,12.63 -1.66,2.05 -2.53,4.07 -3.88,6.12 -2.33,3.54 -2.48,1.92 -4.33,6.67 -1.87,4.78 -0.46,2.67 -3.87,6.14 -5.57,5.69 -8.56,12.37 -12.26,19.74 -2.39,4.75 -6.28,7.95 -8.32,12.68 -3.4,7.9 -8.15,11.74 -10.71,20.29 -2.48,8.23 -2.64,7.35 -6.48,14.54 -4.55,8.53 -8.14,12.32 -8,24 0.14,10.65 -3.91,18.91 5.21,24.8 3.13,2.02 3.85,2.15 4.8,6.2 -3.46,5.17 -13.07,5.7 -20.16,6.85 -8.38,1.36 -20.65,6.6 -28.75,3.08 -4.06,-1.76 -8.37,-7.07 -10.12,-10.92 -0.45,-0.99 -3.98,-21.82 -3.98,-24.01 0,-7.23 6.88,-28.41 8.78,-36.22 1.21,-4.96 7.61,-16.19 10.57,-22.44l9.83 -24.17c1.09,-2.27 2.74,-4.58 3.83,-7.17 1.36,-3.23 1.37,-5.69 2.48,-9.52 5.65,-19.45 2.83,-17.18 5.06,-28.95 1.41,-7.46 2.4,-16.57 0.01,-24.11 -1.23,-3.88 -2.73,-4.52 -4.26,-7.74 -4.2,-8.77 0.16,-6.13 -7.85,-17.16 -3.4,-4.68 -3.49,-2.11 -7.4,-4.59 -4.26,-2.71 -0.21,-3.18 -7.37,-5.63 -15.43,-5.28 -24.1,-4.09 -39.78,-2.42 -24.76,2.66 -31.21,21.21 -31.49,21.52 -0.63,0.71 -2.07,1.44 -2.95,2.05 -1.91,1.32 -1.69,1.43 -3.23,2.77 -2.61,2.25 -3.52,2.01 -5.99,4.01 -5.78,4.7 -10.95,14.78 -14.09,18.92l-8.47 12.53c-3.69,6.74 -10.7,14.39 -10.7,1.3 0,-10.66 2.31,-4.32 -1.28,-14.71 -1.22,-3.54 -1.13,-6.66 -3.83,-14.18 -2.53,-7.04 -1.99,-6.01 -6.58,-11.42 -1.65,-1.95 -2.21,-3.26 -4.06,-4.94 -5.6,-5.08 -5.38,-7.32 -9.76,-9.24 -2.61,-1.14 -4.24,-1.42 -6.43,-2.58 -5.58,-2.96 -5.65,-4.86 -13.43,-2.35 -10.61,3.43 -19.69,10.93 -27.88,18.18l-14 13.99c-3.28,3.21 -5.38,6.14 -8.5,9.51 -1.06,1.15 -0.87,1.04 -1.83,2.17l-23.19 28.81c-4.9,5.38 -2.89,7.48 -6.06,11.95l-8.44 10.56c-5.22,5.11 -3.23,5.17 -6.38,11.62 -3.94,8.09 -9.23,15.39 -14.2,22.81 -2.87,4.3 -3.47,8.25 -6.35,12.65l-17.29 28.72c-1.31,2.35 -1.36,3.63 -2.95,6.04 -4.86,7.35 -8.07,16.79 -12.98,24.04l-6.47 12.52c-1.57,3.71 -5.88,10.86 -8.63,13.38 -1.93,1.77 -0.78,0.64 -2.39,2.61l-13.87 14.14c-1.79,1.78 -2.82,2.74 -4.37,4.63 -3.09,3.8 -0.81,1.93 -5.53,4.46 -5.24,2.82 -5.49,6.74 -11.5,4.93 -4.24,-1.28 -8.85,-5.16 -8.85,-10.27 0,-19.43 4.23,-35.9 9.61,-53.41 1.87,-6.1 4.62,-7.19 6.42,-14.57 2.62,-10.75 7.94,-19.64 11.58,-30.43 2.48,-7.34 4.31,-7.49 8.28,-12.72 4.33,-5.69 3.27,-9.19 6.9,-15.1 3.11,-5.06 5.02,-7.57 7.62,-13.38 2.15,-4.8 5.9,-7.89 8.27,-12.74 4.66,-9.52 3.96,-5.96 8.02,-12.99 2.94,-5.09 6,-8.44 9.3,-12.69 5.59,-7.21 4.04,-4.02 8.3,-12.71 1.6,-3.27 6.87,-7.54 9.94,-11.07 1.99,-2.29 2.29,-3.2 4.5,-5.49 1.89,-1.96 3.92,-3.51 5.43,-5.57 2.43,-3.29 1.18,-3.42 4.7,-6.3 2.56,-2.09 4.15,-2.21 4.15,-6.86 0,-8.77 -9,-15 -13.01,-15 -6.68,0 -12.85,8.35 -16.73,12.26 -14.39,14.46 -22.2,15.14 -33.71,24.31 -3.71,2.96 -16.95,8.43 -21.57,8.43 -9.36,0 -13.97,-2.95 -19.21,-10.79 -9.3,-13.9 -6.13,-17.59 -12.9,-21.1 -9.16,-4.74 -20.72,-1.43 -21.85,9.93 -0.69,6.89 -2.68,8.88 -4.16,14.85 -0.52,2.14 -0.55,3.18 -1.27,5.72 -3.38,11.91 -13.4,26.7 -16.97,40.05 -0.44,1.65 -0.61,3.21 -1.12,4.87l-10.17 28.83c-1.25,3.86 -1.39,6.57 -2.68,10.33 -1.53,4.48 -3.15,5.24 -4.52,8.48 -1.97,4.65 -0.61,4.66 -3.73,9.27 -2.28,3.36 -2.76,5.3 -4.71,8.29 -1.91,2.92 -3.09,4.07 -4.73,7.27 -1.4,2.72 -2.61,5.86 -4.42,8.59 -4.88,7.37 -9.41,16.05 -15.32,22.68 -3.08,3.45 -6.59,6.28 -8.94,10.07 -7.52,12.14 -16.46,14.19 -22.31,22.69l-13.16 12.84c-6.55,4.19 -12.9,9.65 -15.95,10.05 -17.69,2.31 -11.32,6.11 -22.9,6.11 -3.46,0 -10,-7.4 -10,-11 0,-5.1 1.23,-7.42 2.23,-11.77 1.38,-5.94 0.75,-21.14 4.66,-25.35 4.17,-4.49 3.81,-2.07 5.99,-9.01 1.52,-4.83 7.24,-14.92 10.33,-18.67l14.04 -15.96c4.76,-5.36 10,-15.87 13.71,-22.3 4.73,-8.2 10.33,-15.61 13.27,-24.74 2.5,-7.77 13.78,-24.38 13.78,-31.22 0,-12.84 -0.15,-19.62 -15.89,-16.9 -10.52,1.82 -6.12,7.52 -10.95,14.07 -1.08,1.47 -1.53,1.5 -2.74,3.25 -2.99,4.32 -4.29,7.8 -6.03,12.98 -1.31,3.91 -2.57,5.48 -4.58,8.42 -2.37,3.5 -3.82,4.14 -5.98,7.02 -1.72,2.28 -2.82,4.81 -4.7,7.3l-22.19 40.82c-2.67,4.88 -20.03,20.98 -25.19,25.82 -2.55,2.39 -4.36,3.02 -6.93,5.07l-13.59 11.41c-8.91,5.34 -5.19,1.67 -15.55,10.45 -1.72,1.46 -1.66,1.15 -3.39,2.62 -5.68,4.81 -12.14,10.02 -19.21,12.79 -1.31,0.51 -2.99,0.81 -4.38,1.62 -2.88,1.69 -0.5,0.02 -3.05,2.95 -3.23,3.71 -9.5,9.46 -13.79,11.21 -6.82,2.79 -10.24,6.08 -17.61,8.4 -3.78,1.18 -6.63,1.72 -11.28,1.72 -4.81,0 -7.36,-9.4 -6.79,-14.71 1.01,-9.5 5.2,-16.86 7.2,-25.89 3.19,-14.4 5.44,-10.82 9.99,-24 2.13,-6.14 3.15,-10.32 6.62,-15.39 1.69,-2.47 2.45,-3.76 3.55,-7.45 1.29,-4.31 1.66,-4.66 3.85,-8.16 1.68,-2.68 2.74,-3.91 4.26,-6.74 1.51,-2.8 2.11,-4.86 3.49,-7.51 1.75,-3.35 2.61,-2.49 4.44,-6.56 4.29,-9.57 5.86,-13.66 12.27,-21.74 3.53,-4.46 6.69,-8.49 11.13,-11.87 4.37,-3.33 6.89,-7.7 9.96,-12.04 2.53,-3.59 3.11,-2.71 5.71,-5.29 5.79,-5.74 4.93,-7.53 16.64,-17.36 4.28,-3.6 7.92,-7.25 13.06,-9.95 7.47,-3.95 4.44,-5.17 14.02,-7.99 4.94,-1.46 10.3,-8.38 14.62,-8.38 17.88,0 15,18.01 15,31.01 0,4.06 -0.5,3.27 -1.35,6.65 -0.61,2.41 -0.81,5.18 -1.21,7.79 -0.97,6.26 -2.65,9.39 -1.44,14.56 9.18,0 16.73,-7.04 21.01,-13.99 3.49,-5.67 8.01,-21.41 6.05,-28.03 -2.09,-7.09 -4.84,-21.52 -9.46,-25.58 -2.79,-2.45 -2,-1.56 -4.31,-4.7 -1.57,-2.14 -2.3,-3.17 -4.42,-4.58 -13.49,-8.97 -20.83,-3.92 -34.28,-0.54 -11.29,2.84 -14.77,8.27 -23.13,13.87 -4.15,2.78 -2.71,2.11 -7.79,4.22 -3.08,1.28 -6.7,5.6 -14.25,10.75 -2.62,1.78 -6.35,6.52 -12.6,11.41 -10.35,8.09 -9.27,10.45 -14.31,16.69 -2.28,2.81 -0.77,0.15 -3.05,2.96 -2.27,2.81 -1.76,4 -4.72,7.28 -2.31,2.56 -3.16,4.03 -5.51,6.49 -2.28,2.39 -3.89,4.29 -5.81,7.19 -12.5,18.94 -11.66,16.99 -22.16,38.84l-8.79 15.22c-1.88,3.55 -1.31,5.91 -3.5,9.5 -4.24,6.95 -5.9,5.14 -8.38,15.62 -1.68,7.05 -5.77,10.19 -8.61,16.4 -0.89,1.93 -2.82,16.53 -3.57,20.42 -1.44,7.35 -6.43,14.3 -6.43,18.58 0,2.17 3.59,0.32 4.04,10.95 0.82,19.47 2.99,10.63 9.54,20.47 2.22,3.35 3.12,6.79 7.56,7.33 5.94,0.73 20.62,-0.93 26.76,-2.85 9.27,-2.9 17.2,-7.83 25.43,-12.57 2.98,-1.71 2.22,-1.76 4.52,-3.48 6.12,-4.56 11.84,-6.98 17.39,-12.62 4.07,-4.14 20.71,-13.98 26.67,-18.34 4.99,-3.65 3.27,-3.56 6.5,-8.49 2.01,-3.07 13.6,-11.12 13.6,-2.41 0,3.55 -1.98,5.67 -3.32,8.68 -2.6,5.83 -3.63,22.06 0.97,30.68 3.83,7.18 7.11,7.36 13.56,11.45 7.63,4.83 8.71,6.2 18.8,6.2 7.16,0 13.3,-1.88 19.04,-4.96 3.55,-1.9 5.38,-1.41 9.25,-2.75 2.87,-0.98 5.96,-2.98 8.29,-4.71l21.39 -14.62c1.75,-1.14 5.44,-4.1 7.28,-5.72 2.13,-1.88 3.99,-3.86 6.03,-5.96 7.17,-7.37 4.69,-9.62 18.16,-18.85 2.85,-1.95 9.09,-9.92 10.9,-13.1 1.55,-2.7 2.31,-5.59 4.26,-7.75 3.61,-4.01 2.68,-1.58 5.75,-7.25 6.45,-11.91 6.27,-9.28 12.06,-23.95 1.33,-3.35 2.96,-5.53 4.66,-8.34 4.44,-7.35 8.04,-16.3 11.66,-24.35 1.88,-4.19 0.9,-6.79 2.24,-10.75l14.36 -34.65c0.75,-1.77 1.04,-3.18 1.47,-4.53 1.44,-4.49 0.3,-1 1.82,-4.18 1.94,-4.07 1.03,-5.58 2.48,-9.52 2.87,-7.83 3.79,-4.65 6.92,-18.09 6.59,0.15 14.51,8.83 27.12,13.88 14.78,5.92 14.13,0.12 26.89,0.12 4.35,6.51 5,7.94 -3.3,17.71 -4.34,5.12 -8.85,9.81 -12.08,15.92 -2.12,4 -1.05,3.33 -2.05,7.96 -0.67,3.15 -1.19,4.07 -2.86,6.14 -4.24,5.24 -7.33,12.27 -10.37,18.63 -1.15,2.39 -1.92,3.61 -3.03,5.97 -1.34,2.88 -1.53,4.23 -2.73,7.28 -2.57,6.5 -7.21,12.36 -8.71,19.29 -2.66,12.32 -10.27,24.31 -10.87,37.14 -0.15,3.23 -0.33,6.38 -0.71,8.28 -1.95,9.76 -3.24,15.59 -3.25,25.76 -0.01,12.93 -6.95,6.89 2.1,19.8 1.47,2.1 2.41,4.31 3.8,6.2 4.91,6.68 17.14,11.95 26.05,11.95 14.07,0 25.17,-12.6 35.18,-20.82 3.99,-3.28 2.52,-5.08 6.23,-7.78 2,-1.45 2.32,-0.94 4.34,-2.67 1.48,-1.27 2.06,-2.38 3.14,-3.85l10.5 -18.51c3.9,-11.78 6.29,-7.62 9.98,-18.02 2.1,-5.9 2.5,-4.11 5.83,-8.18 2.65,-3.24 11.88,-25.48 16.97,-33.02 1.64,-2.43 1.05,-2.04 2.25,-4.75 2.47,-5.59 4.18,-3.22 5.84,-9.17 1.77,-6.32 0.18,-4.49 4.44,-9.56 4.73,-5.63 6.86,-11.93 9.42,-18.58 2.09,-5.43 4.16,-4.53 6.42,-8.59 4.38,-7.85 1.3,-7.11 10.18,-17.82 3.32,-4.01 4.32,-9.35 7.71,-13.3l1.84 -2.15c1.01,-1.36 0.57,-1.03 1.61,-2.4 4.84,-6.41 11.34,-12.18 16.16,-18.84 7.2,-9.96 15.39,-14.43 21.42,-21.58l5.15 -4.85c5.04,-4.7 12.24,-8.59 19.42,-8.59 6.9,0 4.52,3.96 8.41,7.59 8.53,7.95 7.9,-0.6 11.59,21.42 3.32,19.85 0.73,23.83 -3.13,41.87 -1.91,8.93 -0.31,12.66 -5.18,21.82 -1.66,3.11 -1.64,4.73 -4.26,6.75 -1.21,0.94 -0.54,0.22 -1.79,1.2 -4.48,3.51 -6.17,9.71 -9.88,14.13 -8.42,10.06 -15.21,22.92 -19.67,35.34 -0.74,2.06 -1.68,7.38 -1.76,9.13 -0.14,3.01 0.19,2.02 0.22,3.87 0.19,11 -1.99,8.43 7.01,17.34 2.79,2.75 9.35,5.56 14.44,5.56 2.51,0 9.11,-10.76 10.34,-13.66 1.41,-3.33 1.56,-6.03 2.77,-9.24 1.29,-3.43 2.91,-4.51 4.5,-8.49 1.23,-3.1 1.71,-6.18 3.07,-8.93 1.81,-3.69 3.88,-3.79 5.35,-6.65 1.87,-3.66 0.45,-6.12 1.19,-10.81 0.87,-5.47 5.33,-12.81 6.95,-18.06 1.15,-3.71 0.35,-5.91 2.12,-9.88 3.29,-7.38 7.18,-18.83 12.46,-24.54 2.15,-2.32 3.33,-4.15 4.55,-7.46 1.49,-4.05 1.13,-5.76 3.69,-9.31l13.95 -22.06c2.9,-4.96 1.56,-2.79 5.76,-6.23 2.54,-2.08 4.71,-4.13 6.28,-6.72 5.66,-9.36 3.8,-5 11.73,-12.28l12.59 -12.41c9.78,-8.02 26.64,-9.94 38.68,-8.26 7.98,1.1 12.26,3.25 15.65,9.35 9.45,16.98 4.68,31.1 1.15,46.38 -1.94,8.37 -1.94,10.69 -5.94,20.07 -0.93,2.2 -1.73,2.94 -2.99,6.01 -0.78,1.91 -1.53,4.13 -2.54,6.46 -1.83,4.25 -3.76,7.43 -5.31,11.7 -5.82,16.11 -4.22,5.51 -9.57,24.42l-8.58 26.43c-1.07,3.82 -2.46,25.78 -1.72,30.01 0.75,4.31 2.37,11.32 2.74,15.3 1.03,10.88 -1.32,5.49 3.93,13.08 3.79,5.47 8.17,8.92 14.82,11.18 5.94,2.01 15.99,4.61 22.4,4.61 4.63,0 5.16,-2.16 8,-4 5.01,-3.24 14.22,-1.4 19.98,-5.02l8.79 -4.21c3.15,-0.98 4.64,-2.23 8.64,-3.37 8.56,-2.43 10.72,-5.43 17.59,-7.42 7.58,-2.19 25.94,-12.95 32.21,-17.79 3.34,-2.59 2.38,-4.16 6.21,-6.79 12.69,-8.73 9.35,-8.49 18.83,-19.18 3.87,-4.37 3.8,-6.23 9.77,-6.23 7.03,0 0.6,13.11 4.99,25 0.98,2.64 1.34,5.25 1.89,8.12 1.42,7.29 3.78,7.39 5.71,15.29 2.03,8.36 7.04,13.74 14.54,16.47 1.61,0.59 2.12,0.66 3.73,1.26 8.19,3.06 6.99,1.36 16.03,-0.24 4.55,-0.81 6.53,-2.08 10.13,-3.88 3.69,-1.85 5.33,-2.8 8.69,-5.31 5.51,-4.12 11.34,-6.76 16.07,-11.94l9.36 -10.64c0.15,-0.14 0.37,-0.33 0.52,-0.48 3.61,-3.55 5.31,-8.73 8.35,-12.65 3.4,-4.38 2.67,-3.86 4.99,-9.01 2.02,-4.51 3.88,-4.43 5.84,-8.16l9.98 -18.02c2.23,-3.26 3.14,-5.24 5.93,-8.08 2.9,-2.95 3.9,-4.71 6.51,-7.49 2.64,-2.83 4.24,-4.07 6.35,-7.65 2,-3.38 2.94,-5.93 5.23,-8.77 2.24,-2.79 4.92,-3.96 6.49,-7.52 2.57,-5.82 3.22,-15.57 7.43,-20.57 1.7,-2.03 1.7,-1.44 3.21,-3.79 3.43,-5.38 6.84,-5.85 9.73,-11.27 3.9,-7.29 16.93,-28.37 21.87,-34.14 1.32,-1.53 1.97,-2.19 3.06,-3.95 1.13,-1.83 1.46,-2.96 2.44,-4.56 1.4,-2.3 3.99,-5.71 5.8,-8.2 4.71,-6.47 11.84,-11.9 16.12,-18.88 0.91,-1.47 1.33,-3.06 2.43,-4.56 1.78,-2.43 1.92,-1.67 3.71,-3.3 2.4,-2.17 1.12,-1.78 3.35,-3.65 10.85,-9.04 25.57,-1.43 37.52,-1.42 5,0 10.04,0 15.04,-0.04 4.2,-0.04 11.99,-0.88 11.99,3.01 0,6.2 -4.67,8.33 -7.19,11.81 -1.86,2.58 -1.45,3.63 -2.84,6.15l-12.38 16.63c-12.61,16 -9.55,6.09 -12.05,15.95 -2.2,8.68 -14.41,19.79 -18.81,29.2 -1.56,3.33 -1.01,3.8 -3.46,6.54l-7.93 11.08c-2.27,4.01 -5.71,6.95 -8.33,10.66 -1.74,2.45 -2.78,2.98 -4.73,5.27l-8.88 12.13c-0.15,0.14 -0.37,0.34 -0.52,0.48l-7.12 8.88c-5.1,5.81 -9.98,17.08 -14.36,23.64 -4.64,6.96 -5.87,11.66 -12.13,16.88 -4.21,3.52 -19.54,22.66 -22.85,25.15 -4.7,3.53 -4.92,6.02 -10.11,8.9 -5.96,3.29 -8.29,10.17 -13.75,14.25 -2.71,2.03 -3.32,1.83 -4.88,5.12 -1.58,3.31 -0.56,2.93 -3,6.01 -3.76,4.74 -3.76,8.32 -2.83,14.42 0.86,5.63 -0.03,2.99 3.32,6.69 3.73,4.09 4.35,7.4 11.2,8.8 9.71,1.99 14.44,1.16 19.62,-5.61 1.64,-2.15 3.07,-3.21 4.59,-5.41 3.06,-4.47 3.32,-7.28 7.17,-11.83l13.81 -24.2c1.43,-2.3 1.57,-3.64 2.77,-6.23 3.64,-7.9 4.75,-11.44 12.1,-16.9 6.48,-4.81 7.74,-8.5 16.56,-6.44 2.06,4.3 1.33,4.39 2.27,9.74 0.9,5.16 7.99,24.54 10.44,27.55 3.17,3.89 19.45,12.03 24.85,13.16 22.6,4.75 6.53,0.97 29.48,-0.42 6.14,-0.37 1.96,0.06 6.07,-1.93 3.95,-1.92 7.5,-1.56 11.6,-3.39 1.97,-0.88 3.53,-1.89 5.32,-2.69 1.98,-0.89 3.41,-1.3 5.65,-2.35l22.81 -8.2c4.33,-1.54 7.16,-1.96 10.91,-4.09 6.59,-3.73 2.5,-6.38 12.62,-6.38 3.61,0 4.16,3.82 7.17,5.83 6.83,4.57 8.45,8.31 18.07,9.94 5.29,0.9 9.2,-0.2 12.91,-0.62 12.64,-1.41 9.26,0.66 23.64,-3.36 2.71,-0.76 7.92,-1.94 10.6,-3.41 3.71,-2.02 4.44,-4.41 7.43,-6.57 5.16,-3.71 11.15,-5.08 16.22,-10.78l49.21 -46.8c12.93,-12.99 15.47,-20.02 18.53,-23.48 2.26,-2.56 4.17,-4.86 5.1,-7.9 2.14,-6.95 2.3,-1.55 9.42,-11.59 7.59,-10.69 2.83,-6.29 7.11,-13.89 2.71,-4.82 7.95,-10.14 11.31,-15.69 3.7,-6.12 6.92,-11.31 11.04,-16.96 2.29,-3.15 3,-5.71 5.05,-8.96 2.54,-4.02 3.45,-3.77 5.37,-8.63 1.49,-3.76 9.45,-15.15 12.85,-15.15 9.07,0 9.58,10.85 16.69,14.32 8.76,4.27 13.98,3.24 25.34,2.71 13.35,-0.62 23.42,-9.66 35.1,-13.91 6.06,-2.21 27.91,-20.12 29.88,-20.12 9.62,0 4.76,11.39 3.02,18.02 -1.01,3.89 -2.04,5.4 -3.15,8.84 -1.03,3.18 -1.18,7.02 -2.32,10.68 -4.18,13.35 -4.18,4.14 -8.39,29.63 -0.75,4.6 -1.34,6.01 -2.41,10.58 -0.72,3.06 -1.95,5.88 -2.69,9.32 -1.4,6.56 -9.5,32.65 -12.9,37.11 -5.57,7.31 -8.3,17.57 -16.16,22.84 -14.51,-3.38 -13.04,-30.79 -15.95,-39.06 -3.78,-10.76 -8.57,-20.5 -9.04,-31.97 -0.22,-5.58 -1.53,-6.65 -5.01,-8.98 -9.22,6.17 -3.98,31.64 -3.97,40.97 0.01,9.27 0.77,18.42 3.51,26.49 2.67,7.89 2.42,8.62 6.01,15.99 3.15,6.48 12.03,17.56 20.45,17.56 5.64,0 12.12,-0.75 16.26,-1.74 8.33,-1.97 9.75,-7.71 14.63,-13.37 6.81,-7.9 5.67,-9.81 9.76,-18.25 2.09,-4.32 5.06,-7.97 6.13,-11.87 1.46,-5.3 0.83,-11.26 2.65,-16.35 4.35,-12.13 3.73,-8.13 5.71,-22.3 0.41,-2.95 1.52,-4.58 2.63,-7.37 1.79,-4.52 1.18,-10.16 2.47,-15.53l9.79 -36.22c0.93,-10.33 4.45,-19.66 7.34,-29.66 1.14,-3.94 1.79,-7.66 4.16,-10.84 6.08,-8.18 21.15,-21.56 27.37,-6.41 8.06,19.64 1.33,4.18 4.19,22.85 0.85,5.53 0.89,6.66 -0.74,12.37 -2.16,7.53 -1.51,16.86 -4.21,24.8l-6.91 22.09c-2.02,8.1 -5.36,14.16 -6.98,22.03 -1.69,8.19 -7.79,23.61 -12.43,30.58 -3.41,5.13 -0.47,6.62 -3.07,11.93 -2.73,5.56 -16.67,23.78 -6.1,28.62 7.11,3.25 23.3,3.41 27.13,-4.59 2.35,-4.9 0.42,-8.62 1.82,-14.19l13.79 -35.21c6.17,-9.02 3.09,-11.38 10.79,-22.22 3.81,-5.37 3.17,-12.59 6.97,-18.03 3.69,-5.27 4.59,-9.9 9.1,-14.9 2.93,-3.24 3.65,-7.5 5.04,-10.96 1.33,-3.31 0.56,-1.37 4.13,-3.88 5.16,-3.64 6.67,-9.8 11.04,-13.96 3.72,-3.53 5.54,-3.72 8.23,-8.77 5.95,-11.17 23.25,-19.26 31.1,-9.44 3.11,3.89 9.61,13.39 10.54,18.47l2.69 12.3c0,4.4 -1.11,3.46 -0.43,7.42 1.82,10.64 2.12,14.58 -6.15,27 -2.24,3.36 -2.95,4.3 -4.93,8.07 -3.61,6.88 -9.31,9.42 -10.52,16.49 -0.92,5.4 -0.9,6.27 -4.21,9.78 -6.29,6.67 -10.83,27.04 -4.73,34.23 3.95,4.65 8.32,2.02 12.97,2.02 11.89,0 10.16,2.3 17.76,-8.25 2.79,-3.88 2.24,-6.05 4.31,-9.68l3.91 -10.1c1.81,-6.8 6.19,-11.49 8.4,-19.6 0.92,-3.38 1.29,-9.02 2.35,-11.66 1.24,-3.09 1.62,-1.61 2.61,-4.42 1.97,-5.56 -3.43,-4.25 4.26,-17.71l14.7 -27.3c1.83,-2.57 1.84,-2.57 3.36,-5.65 2.58,-5.24 4.49,-4.83 7.54,-9.45 3.2,-4.85 1.34,-6.54 6.36,-10.65 10.81,-8.84 2.43,-3.73 14.41,-10.59 2.24,-1.28 2.94,-2.23 6.04,-2.95 10.69,7.15 8.01,7.77 8.01,21 0,46.13 -13.78,57.26 -14.98,78.03 -0.57,9.74 -6.03,20.31 -6.03,24.98 0,5.03 2.08,12.23 5.69,15.31 6.55,5.6 26.44,7.09 34.14,2.51 6.1,-3.63 6.85,-4.87 14.98,-7.02 7.51,-1.98 6.4,-4.51 14.93,-6.07 5.38,-0.99 9.9,-4.67 14.48,-7.53 5.73,-3.58 15.31,-8.33 19.28,-12.71 2.09,-2.31 3.98,-3.15 6.52,-4.49 4.7,2.49 5.77,2.09 6.03,8.96 0.33,8.49 3.45,9.89 5.26,16.75 3.8,14.46 9.19,13.11 19.14,19.87 9.73,6.61 27.35,1.8 34.83,-4.32 6.08,-4.97 10.79,-8.08 14.03,-15.97 2.66,-6.48 2.29,-4.6 5.74,-9.27 3.52,-4.77 2.76,-5.84 4.96,-11.04 2.6,-6.14 8.17,-10.04 11.65,-19.36 1.85,-4.97 8.1,-15.45 11.62,-19.38 3.74,-4.16 2.99,-9.04 7.46,-14.55 5.01,-6.19 5.04,-10.89 12.56,-18.44 4.9,-4.93 0.43,-7.45 8,-15 3.4,-3.41 3.52,-5.04 6.16,-8.84l6.45 -8.55c1.9,-2.74 1.49,-1.88 2.99,-5.01 2.75,-5.7 7.13,-6.61 10.56,-12.44 6.81,-11.58 36.32,-29.55 41.86,4.3 1.35,8.24 4.73,18.28 4.73,26.28 0,11.91 -1.03,17.57 -0.03,29.08 0.56,6.52 -4.49,31.54 -8.25,37.65l-11.06 20.94c-2.78,6.12 -3.67,12.41 -3.67,19.34 0,6.71 1.81,7.21 5.66,10.35 7.66,6.25 18.93,5.02 22.96,0.26 2.86,-3.37 2.32,-9.21 3.26,-13.74 0.96,-4.6 2.25,-7.91 3.48,-12.52 1.2,-4.48 1.83,-8.7 2.84,-13.16l6.44 -17.57c4.45,-8.11 4.8,-3.6 8.35,-16.65l8.29 -15.71c1.71,-2.09 2.22,-1.9 3.7,-4.3 6.4,-10.33 14.15,-18.83 17.99,-31.01 1.58,-5.02 7.99,-9.24 14.19,-18.82 5.8,-8.97 13.44,-6.34 14.73,6.98 1,10.29 0.4,21.81 2.99,30.01 4.05,12.76 3.02,18.14 7.34,24.67 4.91,7.44 4.64,13.19 12.04,20.96 4.66,4.89 10.77,12.62 16.42,15.59 9.27,4.88 15.65,6.15 26.34,6.66 15.69,0.75 11.44,1.71 26.72,-3.29 7.47,-2.44 17.57,-3.67 22.29,-10.71 -6.72,-12.7 -12.51,-4.01 -38,-4.01 -5.65,0 -16.13,-2.14 -19.6,-4.4 -1.5,-0.97 -1.95,-1.64 -3.28,-2.72l-8.92 -10.08c-8.17,-13.36 -8.28,-4.42 -13.4,-23.61 -2.92,-10.97 -6.93,-17.18 -6.81,-30.19 0.07,-8.57 -2.08,-14.44 -2.02,-22.98 0.05,-7.65 -2.6,-24.51 -6.54,-30.47 -2.98,-4.53 -4.3,-6.56 -9.44,-6.56 -11.65,0 -13.94,8.01 -20.38,14.62l-5.33 6.67c-4.34,5.5 -0.96,4.21 -7.95,11.06l-11.66 17.34c-3.22,5.19 -5.84,5.66 -8.27,10.74 -1.86,3.91 -0.56,2.33 -3.65,5.35 -6.67,6.5 -5.09,16.23 -13.77,16.23 -6.85,0 -2.83,-30.4 -6.04,-44.97 -1.19,-5.38 -2.86,-7.66 -4.99,-12.01 -3.13,-6.41 -0.45,-5.83 -6.39,-10.61 -3.21,-2.57 -1.4,-0.92 -3.87,-4.13 -2.62,-3.4 -5.63,-5.31 -8.92,-8.08 -4.64,-3.9 -12.85,-6.21 -19.8,-6.21 -6.71,0 -8.98,4.09 -12.83,7.17 -4.8,3.83 -6.56,4.69 -10.16,9.85l-9.86 10.14c-7.35,5.81 -4.26,5.19 -8.99,12.01l-17.17 23.83c-2.92,4.09 -6.18,7.17 -8.13,11.87 -2.89,6.94 -9.46,11.48 -12.14,18.86 -1.19,3.27 -0.93,4.53 -2.98,7.03 -5.96,7.25 -8.58,14.74 -13.68,21.33 -2.53,3.26 -2.49,6.86 -4.88,10.12 -1.53,2.11 -4.09,3.6 -5.31,5.69 -1.29,2.21 -1.62,5.02 -2.9,7.1 -1.83,2.98 -2.37,2.24 -3.87,6.13 -1.18,3.08 -1,4.48 -2.93,7.07 -2.18,2.94 -3.05,2.1 -4.8,6.2 -2.99,6.98 -1.89,7.19 -7.63,12.38 -4.95,4.46 -4.24,8.24 -13.76,8.24 -6.85,0 -13.42,-6.93 -16.55,-12.44 -2.49,-4.38 -0.55,-8.18 -2.14,-12.87 -4.87,-14.44 -3.37,-10.46 1.58,-22.8 1.72,-4.3 3.71,-6.24 5.52,-11.49 4.27,-12.45 3.39,-12.03 10.64,-23.37 2.1,-3.29 2.73,-8.9 3.74,-13.25 1.28,-5.5 2.59,-8.42 4.1,-12.91 2.37,-7.03 7.12,-19.94 7.12,-26.88 0,-12 -7.2,-20.26 -19.01,-23.01 -9.45,6.33 -7.07,27.37 -11.71,38.29 -1.88,4.42 -4.95,5.81 -6.46,10.54 -1.41,4.4 -1.17,7.9 -3.45,12.56 -2.1,4.28 -4.7,6.47 -5.29,11.71 -0.91,8.16 1.38,8.26 -2.05,14.95 -7.39,14.45 -5.59,8.96 -14.34,18.67 -2.23,2.48 -2.33,1.6 -4.36,3.64 -1.88,1.9 -1.99,3.33 -4.2,4.79 -2.37,1.57 -2.7,0.64 -5.19,2.82 -2.58,2.24 -0.23,1.84 -4.94,4.07l-21.27 12.73c-3.8,3.04 -7.81,2.03 -12.75,4.25 -3.61,1.63 -8.23,3.18 -11.57,5.43 -2.84,1.92 -7.34,5.57 -11.43,5.57 -9.46,0 -4.47,-10 -3.44,-14.44 0.93,-3.96 0.95,-8.36 2.05,-11.95 1.78,-5.87 2.85,-2.1 3.44,-10.56 0.57,-8.27 3.3,-14.76 5.2,-22.81 0.76,-3.24 0.88,-8.55 1.81,-12.19l2.11 -11.89c1.52,-14.82 1.38,-39.83 -8.89,-51.46 -4.33,-4.9 -8.47,-7.08 -15.21,-7.79 -8.87,-0.94 -8.15,-4.94 -16.53,0.61 -9.69,6.41 -4.32,2.74 -11.78,10.23l-16.49 17.52c-2.47,3.4 -1.05,3.73 -4.53,7.47 -4.32,4.64 -3.91,11.01 -8.75,14.25 -7.21,-1.93 -7.72,-7.69 -9.38,-15.63 -1.19,-5.68 -1.06,-4.21 -4.38,-7.62 -4.92,-5.05 -0.16,-3.82 -11.55,-13.45 -2.34,-1.98 -4.76,-4.02 -7.26,-5.74 -7.14,-4.93 -10.15,-5.74 -18.27,-3.41 -13.45,3.86 -3.39,-4.01 -17.77,7.25l-29.09 34.91c-2.56,3.15 -2.67,5.72 -6.31,6.69 -4.49,-8.48 0.75,-16.28 -0.68,-25.3 -1.91,-12.05 -1.79,-30.73 -15.9,-41.14l-6.82 -5.24c-4.28,-2.63 -19.96,4.76 -21.28,-0.34 -1.37,-5.25 3.95,-10.08 5.43,-12.23 2.43,-3.5 0.73,-4.91 1.35,-9.65 0.56,-4.32 2.09,-3.74 2.87,-9.13 1.79,-12.3 3.5,-9.52 6.34,-17.67 2.48,-7.13 0.09,-12.53 4.09,-18.91 7.57,-12.07 -1.54,-9.97 9.59,-36.42 2.2,-5.25 2.71,-13.17 4.37,-18.63 2.72,-8.96 1.73,-10.12 2.77,-20.23 1.73,-16.92 6.32,-31.71 6.9,-51.11 0.24,-8.2 1.4,-20.83 -1.6,-28.48 -2.23,-5.7 -7.57,-14.56 -14.44,-14.56 -15.43,0 -17.85,30.76 -20.63,35.37l-5.37 7.64c-1.69,3.32 -3.24,4.97 -5.43,8.57l-44.85 66.16c-3.19,3.87 -3.43,2.58 -6.07,7.93 -3.04,6.19 -7.83,10.29 -10.65,16.35 -0.93,1.98 -1.02,2.75 -2.21,4.8 -2.73,4.76 -5.74,7.45 -8.46,12.54 -1.87,3.5 -3.01,5.73 -5.59,8.41 -5.8,6.03 -3.7,7.35 -10.76,17.25 -3.82,5.35 -6.13,11.89 -10.18,17.82l-10.32 16.68c-2.08,4.25 -2.88,5.08 -5.74,8.26 -3.47,3.87 -2.65,4.46 -4.35,9.66 -1.19,3.65 -8.28,8.44 -12.62,15.38 -3.77,6.01 -5.77,12.29 -10.07,17.93 -7.45,9.79 -9.31,18.09 -18.58,29.43 -4.44,5.43 -4.06,6.33 -7.44,12.56 -4.69,8.68 -16.44,22.75 -23.13,31.87 -2.65,3.61 -3.12,5.04 -5.37,8.64 -3.81,6.09 -6.82,10.94 -11.96,16.05 -7.49,7.45 -7.34,11.31 -11.97,16.03 -2.58,2.63 -4.55,4.14 -6.87,7.13l-8.82 11.18c-2.31,2.72 -1.73,1.49 -3.72,3.29 -2.39,2.17 -1.14,1.58 -3.17,3.82 -1.89,2.09 -2.28,1.76 -3.77,3.24 -2.4,2.39 -3.55,5.68 -5.88,8.11l-21.43 20.58c-0.15,0.14 -0.37,0.34 -0.52,0.48 -0.15,0.14 -0.36,0.35 -0.5,0.5 -0.15,0.15 -0.35,0.36 -0.49,0.51 -6.08,6.35 -20.74,19.66 -28.14,23.87 -3,1.71 -6.6,1.88 -10.33,3.67 -3.86,1.85 -6,2.39 -9.94,4.06 -30.99,13.11 -21.72,-1.41 -21.72,-19.71z"></path> <path class="fil0" d="M356.72 128.02c-4.19,0 -5.87,-0.51 -8.31,-0.76 -5.34,-0.55 -3.47,0.73 -7.64,0.6 -2.56,-0.08 -10.63,-3.1 -14.95,-3.95 -11.31,-2.23 -18.94,-4.7 -30.82,-6.19 -4.75,-0.59 -10.57,-1.47 -15.67,-2.32l-17.6 -1.42c-4.63,0.12 -3.5,1.04 -8.03,1.04l-32 -1.01c-7.6,0 -11.36,-1.99 -18,-1.99 -4.05,0 -5.93,1.99 -11,1.99 -5.31,0 -4.5,-1.6 -9.79,0.15l-19.22 5.86c-7.19,3.32 -13.96,3.36 -19.03,5.96l-9.26 3.75c-5.06,2.3 -1.24,2.92 -7.69,4.31 -9.65,2.08 -15.57,8.67 -26.81,11.19 -4.56,1.02 -5.43,-0.03 -8.54,3.46 -6.7,7.53 -0.06,3.24 -12.26,12.75l-26.3 23.71c-2.97,3.06 -4.94,7.18 -8.7,10.3l-12.85 12.15c-3.36,3.46 -5.01,7.06 -8.01,10.99l-18.42 31.59c-6.68,8.75 -3.39,8.7 -5.64,19.49 -1.36,6.55 5.27,11.52 11.08,12.83 2.23,0.5 3.09,0.3 4.66,-0.12l12.76 -6.34c0,-18.95 -2.05,-17.5 7.41,-31.6 2.95,-4.4 6.5,-5.47 9.28,-10.72 10.03,-18.89 15.08,-18.31 21.91,-28.09 2.69,-3.85 23.13,-22.52 26.09,-23.92 2.42,-1.15 4.35,-1.18 6.46,-2.54 4.48,-2.89 8.56,-7.85 17.27,-12.73l26.91 -13.1c6.23,-3.18 8.93,-2.45 15.49,-4.51l14.32 -5.69c4.57,-3 0.61,-1.64 7.75,-2.24 29.1,-2.47 63.81,-2.96 91.7,1.56 5.09,0.82 9.05,1.59 14.43,1.57l41.39 7.61c9.61,4.26 3.46,14.99 -2.43,26.33 -2.64,5.06 -6.83,10.18 -7.8,16.21 -0.65,4.06 0.47,3.11 -1.54,6.46 -10.19,16.99 -14.23,34.42 -23.41,49.59l-10.86 21.15c-6.9,12.56 -4.33,14.87 -8.66,23.34 -7.76,15.15 -4.48,20.38 -23.1,25.9 -14.52,4.31 -43.22,8.2 -47.33,17.8 -1.87,4.38 -0.06,7.98 3.67,9.58l11.97 1.88c9.46,-0.24 19.6,-3.84 30.1,-3.84 4.43,0 2.65,0.59 2.12,2.16 -0.19,0.57 -2.01,2.28 -2.94,3.99 -2.05,3.77 -1.77,5.84 -4.46,9.58 -4.16,5.8 -5.06,13.18 -7.82,20.18 -1.5,3.79 -2.98,4.32 -4.92,8.07l-4.92 9.09c-1.07,2.28 -0.75,3.21 -1.82,5.18l-6.16 7.84c-1.05,1.6 -1.89,2.25 -3.1,3.91 -1.93,2.64 -2.75,5.15 -4.61,8.38 -2.93,5.08 -3.77,2.16 -6.73,7.28 -2.19,3.79 -2.52,5.35 -5.41,8.58 -1.8,2.01 -1.74,1.65 -3.17,3.84 -2.17,3.34 -0.21,1.35 -3.08,3.92 -3.97,3.55 -2.11,3.89 -9.21,10.79 -1.39,1.35 -1.9,2.42 -2.97,4.03 -5.95,9 -18.05,21.79 -26.5,28.51l-7.16 6.84c-2.73,2.45 -4.81,2.99 -7.92,6.08 -5.66,5.64 -7.62,8.87 -15.61,11.4 -12.54,3.97 -23.05,16.4 -35.68,19.32 -7.58,1.75 -13.71,4.77 -21.06,6.94 -6.97,2.06 -16.42,5.47 -20.55,-1.22 -7.18,-11.62 5.3,-32.67 -7.34,-32.67 -7.2,0 -7.56,5.34 -8.99,11.02 -0.7,2.77 -2.12,5.38 -2.61,7.46 -0.93,4 0.6,4.53 0.6,9.53 0,5.91 -4.46,12.77 -0.2,18.2 8.08,10.31 13.41,10.29 25.3,9.48 13.59,-0.93 7.12,4.86 26.03,-2.55 4.68,-1.83 9.39,-2.29 13.9,-4.11 4.04,-1.62 15.01,-5.55 18.15,-7.85 13.1,-9.61 12.15,-3.3 28.83,-15.17 2.07,-1.47 2.19,-1.76 4.69,-3.31 6.34,-3.91 19.12,-17.19 26.1,-22.91l23.65 -24.35c2.55,-3.77 5.07,-5.71 7.25,-9.75l20.33 -24.68c4.92,-4.21 20.93,-34.72 27.27,-42.74 2.55,-3.24 2.54,-7.6 5.43,-11.57 3.95,-5.42 11.72,-22.61 14.6,-29.41 4.81,-11.36 10.65,-34.63 22.94,-38.07 7.16,-2 12.44,-5.48 19.87,-7.13 10.18,-2.26 2.28,-5.68 23.89,-11.11 9.7,-2.44 22.95,-2.61 17.01,-15 -11.52,-2.76 -18.13,6.03 -34.99,7.01 -3.37,0.2 -20.02,5.78 -20.02,-1.01 0,-9.07 1.75,-2.35 7.61,-19.4 2.55,-7.44 5.46,-9.26 7.74,-17.25 4.58,-16.04 14.95,-27.12 17.4,-32.62 2.26,-5.09 0.44,-5.37 1.47,-10.52 0.67,-3.35 3.24,-5 5.03,-7.97 2.61,-4.31 0.82,-4.37 5.87,-12.14l9.76 -22.24c1.7,-5.16 4.37,-8.43 5.42,-13.62 0.52,-2.55 -1.06,-13.26 4.71,-13.26 9.99,0 8.27,1.42 19.28,-0.72l37.34 -8.66c15.13,-6.02 6.83,-5.28 24.14,-9.87 5.58,-1.48 9.39,-5.16 15.03,-6.98 4.02,-1.29 4.42,-2.4 7.92,-4.08 10.01,-4.79 10.55,-1.07 22.6,-11.4 1.91,-1.63 4.83,-3.53 7.12,-4.89 9.68,-5.74 5.29,-5.8 15.53,-6.47 10.36,-0.68 13.68,-8.3 20.26,-13.74 3.44,-2.85 3.35,-2.53 7.68,-4.32 5.05,-2.09 6.53,-4.52 15.13,-7.87 6.2,-2.42 24.48,-10.9 29.71,-15.3 8.76,-7.35 7.2,-3.16 15.66,-7.34 12.37,-6.13 13.77,-17.38 5.63,-17.38 -2.05,0 -10.88,6.23 -13.4,7.61 -3.16,1.72 -4.79,1.53 -8.39,2.61 -2.23,0.67 -5.25,1.95 -7.87,3.13l-23.18 8.82c-2.4,1.46 -4.68,2.72 -7.18,3.82l-72.7 34.32c-6.87,3.43 -4.49,5.53 -14.41,7.6 -6.03,1.25 -11.87,6.38 -22.7,9.29 -9.14,2.47 -34.47,13.36 -40.21,13.8 -3.47,0.27 -7.51,-0.25 -10.97,0.03 -4.33,0.37 -4.71,1.61 -9.04,1.97 -3.36,0.28 -7.65,-0.35 -10.89,0.11 -3.75,0.53 -5.47,2.91 -8.09,2.91z"></path> <path class="fil0" d="M2289.97 39.01c0.76,9.24 7.49,18 12,18 4.47,0 9.63,-3.5 13.02,-4.99 7.11,-3.11 9.98,-3.59 9.98,-10.01 0,-5.82 -3.78,-6.03 -6.59,-9.42 -4.33,-5.24 -1.91,-4.82 -10.22,-5.83 -5.18,-0.63 -8.51,-1.42 -11.35,3.08 -1.38,2.18 -0.88,3.01 -2.68,5.33l-4.16 3.84z"></path> </g> </g> </svg>
