<?xml version="1.0" encoding="UTF-8"?>
<svg xmlns="http://www.w3.org/2000/svg" xmlns:xlink="http://www.w3.org/1999/xlink" xmlns:xodm="http://www.corel.com/coreldraw/odm/2003" xml:space="preserve" width="8.7207mm" height="8.7207mm" version="1.1" style="shape-rendering:geometricPrecision; text-rendering:geometricPrecision; image-rendering:optimizeQuality; fill-rule:evenodd; clip-rule:evenodd" viewBox="0 0 310.15 310.15"> <defs> <style type="text/css"> .fil0 {fill:white;fill-rule:nonzero} </style> </defs> <g id="Layer_x0020_1"> <metadata id="CorelCorpID_0Corel-Layer"></metadata> <path class="fil0" d="M155.07 0c42.82,0 81.6,17.36 109.66,45.42 28.06,28.06 45.42,66.84 45.42,109.66 0,42.82 -17.36,81.59 -45.42,109.65 -28.06,28.06 -66.84,45.42 -109.66,45.42 -42.82,0 -81.59,-17.36 -109.65,-45.42 -28.06,-28.06 -45.42,-66.84 -45.42,-109.65 0,-42.82 17.36,-81.6 45.42,-109.66 28.06,-28.06 66.84,-45.42 109.65,-45.42zm103.27 51.81c-26.42,-26.42 -62.94,-42.77 -103.27,-42.77 -40.33,0 -76.84,16.35 -103.27,42.77 -26.42,26.42 -42.77,62.94 -42.77,103.27 0,40.33 16.35,76.84 42.77,103.27 26.42,26.42 62.94,42.77 103.27,42.77 40.33,0 76.84,-16.35 103.27,-42.77 26.42,-26.42 42.77,-62.94 42.77,-103.27 0,-40.33 -16.35,-76.84 -42.77,-103.27zm-48.13 47.92c-7.45,-7.44 -16,-13.18 -25.23,-17.05 -9.24,-3.87 -19.22,-5.89 -29.5,-5.89 -21.33,0 -40.75,8.75 -54.82,22.83 -14.09,14.09 -22.84,33.51 -22.84,54.83 0,6.84 0.9,13.57 2.65,20.04 1.76,6.51 4.38,12.75 7.79,18.58l0.64 1.1 -10.25 37.98 38.8 -10.27 1.07 0.61c5.61,3.21 11.52,5.62 17.66,7.21 6.16,1.61 12.62,2.41 19.3,2.41 21.3,0 40.59,-8.73 54.56,-22.77 14.01,-14.08 22.69,-33.53 22.69,-54.89 0,-10.25 -2,-20.19 -5.79,-29.39 -3.82,-9.28 -9.47,-17.86 -16.73,-25.33zm-54.72 124.62c-6.22,0 -12.34,-0.85 -18.26,-2.44 -6.08,-1.63 -11.96,-4.06 -17.48,-7.15l-1.56 -1.02 -28.85 8.18 7.75 -28.6 -1 -1.75c-3.5,-5.47 -6.23,-11.51 -8.09,-17.8 -1.84,-6.27 -2.82,-12.8 -2.82,-19.31 0,-19.19 7.95,-36.64 20.69,-49.31 12.77,-12.7 30.38,-20.58 49.62,-20.58 9.28,0 18.15,1.82 26.39,5.25 8.39,3.49 16.12,8.65 22.94,15.26l0.04 0.02c6.49,6.49 11.49,14.17 14.88,22.5 3.45,8.48 5.23,17.62 5.23,26.87 0,19.24 -7.79,36.74 -20.38,49.41 -11.9,11.97 -28.1,19.65 -46.08,20.42l0 0.07 -3.01 0zm36.78 -53.17c-2.51,-0.84 -12.12,-5.85 -14.21,-6.27 -1.67,-0.84 -2.93,-1.26 -4.6,0.84 -1.25,2.09 -4.6,6.27 -5.85,7.94 -1.67,1.25 -2.51,1.25 -4.6,0.42 -2.09,-0.84 -8.78,-3.34 -16.3,-10.03 -5.85,-5.02 -10.03,-11.71 -11.28,-13.8 -0.84,-2.09 0,-3.34 1.26,-4.18 0.84,-0.84 1.67,-2.09 2.92,-3.35 1.26,-1.25 1.26,-2.09 2.09,-3.34 0.84,-1.25 0.42,-2.51 -0.42,-3.76 -0.42,-0.84 -4.6,-10.45 -6.27,-15.05 -1.26,-3.76 -2.93,-2.93 -4.18,-2.93 -1.25,-0.42 -2.93,-0.42 -4.18,-0.42 -1.26,0 -3.34,0.42 -5.02,2.51 -2.09,2.09 -7.11,6.69 -7.11,17.14 0,9.61 7.11,19.23 7.94,20.48 1.26,1.67 14.22,21.74 34.69,30.51 4.6,2.09 8.36,3.35 11.29,4.18 5.01,1.67 9.19,1.25 12.54,0.84 4.18,-0.42 12.12,-5.02 13.79,-9.61 1.67,-5.02 1.67,-8.78 0.84,-9.62 -0.42,-0.84 -1.67,-1.67 -3.34,-2.51l0 0 0 0z"></path> </g> </svg>
